<?xml version="1.0" encoding="utf-8"?>
<!-- Generator: Adobe Illustrator 16.0.0, SVG Export Plug-In . SVG Version: 6.00 Build 0)  -->
<!DOCTYPE svg PUBLIC "-//W3C//DTD SVG 1.0//EN" "http://www.w3.org/TR/2001/REC-SVG-20010904/DTD/svg10.dtd">
<svg version="1.0" id="Layer_1" xmlns="http://www.w3.org/2000/svg" xmlns:xlink="http://www.w3.org/1999/xlink" x="0px" y="0px"
	 width="180px" height="223.2px" viewBox="0 0 180 223.2" enable-background="new 0 0 180 223.2" xml:space="preserve">
<polygon fill="#8C6E47" points="99.366,88.058 97.194,89.949 99.156,91.77 100.508,93.021 112.479,104.126 112.479,110.892 
	93.203,93.021 91.856,91.77 89.764,89.833 91.807,88.058 93.248,86.806 112.479,70.066 112.479,76.643 100.805,86.806 "/>
<g>
	<defs>
		<rect id="SVGID_1_" x="-330.945" y="-186.038" width="841.89" height="595.276"/>
	</defs>
	<clipPath id="SVGID_2_">
		<use xlink:href="#SVGID_1_"  overflow="visible"/>
	</clipPath>
	<path clip-path="url(#SVGID_2_)" fill="#8C6E47" d="M75.509,89.746l-0.429,0.168c0.342,0.136,0.69,0.274,1.036,0.397L75.509,89.746
		z"/>
	<path clip-path="url(#SVGID_2_)" fill="#8C6E47" d="M75.509,89.746l-0.429,0.168c0.342,0.136,0.69,0.274,1.036,0.397L75.509,89.746
		z"/>
	<path clip-path="url(#SVGID_2_)" fill="#8C6E47" d="M64.679,66.993c0,8.995,6.019,16.602,14.242,19.016l33.559-29.218v6.584
		L85.562,86.803l-1.446,1.262l-1.607,1.394l2.488,2.31l1.353,1.253l26.128,24.231v6.771L79.68,93.612
		c-8.608,2.153-15.001,9.957-15.001,19.223c0,10.921,8.888,19.809,19.809,19.809h27.991v4.967H84.488
		c-13.658,0-24.773-11.117-24.773-24.775c0-10.335,6.355-19.21,15.366-22.921c0.342,0.135,0.69,0.274,1.036,0.397l-0.607-0.565
		l-0.429,0.168c-9.011-3.712-15.366-12.587-15.366-22.921c0-13.661,11.115-24.776,24.773-24.776h27.991v4.967H84.488
		C73.566,47.184,64.679,56.069,64.679,66.993"/>
	<path clip-path="url(#SVGID_2_)" fill="#8C6E47" d="M31.166,125.544l-0.074,0.855l-1.982,21.469l-0.081,0.818
		c-0.384-0.396-0.761-0.8-1.129-1.21l0.077-0.832l2.027-22.043l0.087-0.9l0.149,0.268C30.546,124.502,30.85,125.021,31.166,125.544"
		/>
	<path clip-path="url(#SVGID_2_)" fill="#8C6E47" d="M26.529,116.433l-0.168,0.895l-4.157,22.275l-0.148,0.83
		c-0.349-0.46-0.684-0.918-1.014-1.382l0.162-0.858l4.289-22.977l0.181-0.961c0.109,0.316,0.242,0.632,0.358,0.955
		C26.193,115.621,26.361,116.024,26.529,116.433"/>
	<path clip-path="url(#SVGID_2_)" fill="#8C6E47" d="M24.202,109.929l-0.281,0.826c-2.753,8.088-5.441,16.05-6.955,20.749
		l-0.255,0.812c-0.281-0.486-0.558-0.974-0.826-1.465l0.261-0.812c1.788-5.514,4.687-14.092,7.162-21.34l0.29-0.861
		C23.786,108.538,23.986,109.242,24.202,109.929"/>
	<path clip-path="url(#SVGID_2_)" fill="#8C6E47" d="M22.303,102.047l-0.391,0.687c-3.866,6.849-7.684,13.662-10.085,18.067
		l-0.384,0.71c-0.2-0.497-0.397-0.994-0.584-1.497l0.39-0.727c2.54-4.667,6.335-11.444,10.328-18.5l0.41-0.719
		C22.08,100.73,22.183,101.389,22.303,102.047"/>
	<path clip-path="url(#SVGID_2_)" fill="#8C6E47" d="M21.292,92.657l-0.478,0.72c-4.841,7.261-9.575,14.4-12.028,18.186
		l-0.452,0.701c-0.152-0.532-0.287-1.068-0.423-1.607l0.459-0.713c2.93-4.512,7.987-12.135,12.37-18.7l0.504-0.745v0.197
		C21.25,91.353,21.265,92.005,21.292,92.657"/>
	<path clip-path="url(#SVGID_2_)" fill="#8C6E47" d="M21.8,81.082l-0.074,0.565c-0.075,0.597-0.136,1.191-0.188,1.788l-0.577,0.733
		L6.993,102.054l-0.168-0.13l-0.71-0.555l-0.103-0.077l0.08-0.107l0.533-0.684l14.568-18.644L21.8,81.082z"/>
	<path clip-path="url(#SVGID_2_)" fill="#8C6E47" d="M23.247,73.355l-0.129,0.52c-0.133,0.535-0.249,1.074-0.368,1.613l-0.633,0.585
		L5.974,90.87L5.36,91.435c-0.006-0.51-0.013-1.014-0.013-1.52v-0.149l0.626-0.578l16.595-15.22L23.247,73.355z"/>
	<path clip-path="url(#SVGID_2_)" fill="#8C6E47" d="M26.014,64.685l-0.113,0.278c-0.168,0.429-0.332,0.865-0.494,1.297
		l-0.174,0.491l-0.71,0.497L6.569,79.814l-0.681,0.478c0.061-0.552,0.129-1.104,0.203-1.656l0.694-0.484L25.262,65.21L26.014,64.685
		z"/>
	<path clip-path="url(#SVGID_2_)" fill="#8C6E47" d="M29.67,56.871c-0.268,0.484-0.52,0.968-0.775,1.459l-0.293,0.571l-0.788,0.445
		L8.263,70.326l-0.733,0.41c0.126-0.552,0.262-1.097,0.4-1.646l0.749-0.42l20.165-11.334L29.67,56.871z"/>
	<path clip-path="url(#SVGID_2_)" fill="#8C6E47" d="M33.63,50.49L33.275,51c-0.304,0.439-0.6,0.888-0.894,1.333l-0.81,0.336
		l-20.507,8.358l-0.771,0.314c0.187-0.53,0.381-1.053,0.584-1.572l0.788-0.323l21.11-8.607L33.63,50.49z"/>
	<path clip-path="url(#SVGID_2_)" fill="#8C6E47" d="M13.297,54.053l0.329-0.1l0.478-0.142l21.126-6.448l0.094-0.032l0.781-0.243
		c0.403-0.484,0.813-0.968,1.236-1.439l0.274-0.316l-0.013,0.006l-0.887,0.268l-0.02,0.006l-21.852,6.665l-0.449,0.136l-0.358,0.113
		L13.297,54.053z"/>
	<path clip-path="url(#SVGID_2_)" fill="#8C6E47" d="M44.901,37.929l-0.349,0.304c-0.342,0.303-0.681,0.609-1.016,0.919
		l-0.026,0.026h-0.746l-19.761-0.026h-0.774c0.31-0.416,0.626-0.826,0.942-1.236h0.784l20.181,0.013H44.901z"/>
	<path clip-path="url(#SVGID_2_)" fill="#8C6E47" d="M40.736,41.882l-0.465,0.478c-0.3,0.31-0.603,0.639-0.887,0.955l-0.772,0.094
		l-20.268,2.562l-0.174,0.026l-0.61,0.074c0.281-0.452,0.558-0.907,0.839-1.352l0.762-0.094l0.032-0.006l20.742-2.637L40.736,41.882
		z"/>
	<path clip-path="url(#SVGID_2_)" fill="#8C6E47" d="M51.293,32.97l-0.168,0.113c-0.41,0.278-0.813,0.565-1.21,0.855l-0.255,0.187
		l-0.794-0.038l-20.755-1.062l-0.794-0.042c0.355-0.397,0.719-0.794,1.094-1.184l0.807,0.041l21.242,1.088L51.293,32.97z"/>
	<path clip-path="url(#SVGID_2_)" fill="#8C6E47" d="M59.405,28.185l-0.833,0.423c-0.39,0.197-0.774,0.41-1.158,0.613l-0.888-0.093
		L34.441,26.8l-0.829-0.088c0.416-0.371,0.836-0.745,1.258-1.11l0.853,0.094l22.746,2.388L59.405,28.185z"/>
	<path clip-path="url(#SVGID_2_)" fill="#8C6E47" d="M68.795,24.306l-0.355,0.116c-0.446,0.158-0.894,0.307-1.333,0.468l-0.849,0.31
		l-1.052-0.148l-24.215-3.496l-0.881-0.122c0.484-0.355,0.968-0.704,1.459-1.049l0.897,0.129l25.212,3.631L68.795,24.306z"/>
	<path clip-path="url(#SVGID_2_)" fill="#8C6E47" d="M77.906,21.99l-0.458,0.087h-0.007c-0.465,0.094-0.92,0.187-1.365,0.278
		l-0.691,0.151L74.424,22.2l-22.857-7.155l-0.845-0.268c0.523-0.271,1.042-0.539,1.572-0.807l0.855,0.274h0.006l23.715,7.43h0.013
		h0.006L77.906,21.99z"/>
	<path clip-path="url(#SVGID_2_)" fill="#8C6E47" d="M85.273,21.072l-0.249,0.02c-0.687,0.048-1.378,0.109-2.059,0.183l-0.826-0.419
		L61.988,10.503l-0.759-0.391c0.533-0.194,1.075-0.384,1.614-0.565l0.771,0.391L84.405,20.63L85.273,21.072z"/>
	<path clip-path="url(#SVGID_2_)" fill="#8C6E47" d="M94.142,20.998l-0.62-0.032c-0.548-0.023-1.087-0.042-1.639-0.055h-0.007
		l-0.727-0.52L72.935,7.411l-0.678-0.484c0.552-0.123,1.101-0.236,1.653-0.346l0.694,0.497h0.006l18.764,13.375L94.142,20.998z"/>
	<path clip-path="url(#SVGID_2_)" fill="#8C6E47" d="M103.483,22.165l-0.032-0.006c-0.451-0.088-0.903-0.175-1.358-0.249
		c-0.291-0.048-0.584-0.1-0.875-0.142l-0.682-0.619L83.87,5.867l-0.626-0.578c0.565-0.042,1.13-0.087,1.701-0.116l0.639,0.581
		l17.192,15.759L103.483,22.165z"/>
	<path clip-path="url(#SVGID_2_)" fill="#8C6E47" d="M110.682,23.977l-0.115-0.039c-0.449-0.142-0.895-0.271-1.35-0.397
		l-0.626-0.171l-0.552-0.677L94.243,5.717l-0.53-0.646c0.559,0.026,1.12,0.052,1.672,0.087l0.533,0.659l14.194,17.453
		L110.682,23.977z"/>
	<path clip-path="url(#SVGID_2_)" fill="#8C6E47" d="M118.85,27.092l-0.113-0.048c-0.626-0.287-1.265-0.565-1.904-0.833
		l-0.471-0.745l-11.651-18.6l-0.438-0.71c0.552,0.094,1.097,0.194,1.648,0.294l0.449,0.72l11.996,19.154L118.85,27.092z"/>
	<path clip-path="url(#SVGID_2_)" fill="#8C6E47" d="M126.025,30.903c-0.311-0.2-0.626-0.384-0.943-0.571
		c-0.342-0.197-0.69-0.397-1.035-0.591l-0.41-0.807L113.412,8.857l-0.384-0.749c0.552,0.149,1.094,0.31,1.64,0.471l0.39,0.769
		l10.538,20.706L126.025,30.903z"/>
	<path clip-path="url(#SVGID_2_)" fill="#8C6E47" d="M133.944,36.52l-0.274-0.229c-0.378-0.303-0.749-0.604-1.136-0.9l-0.339-0.262
		l-0.281-0.849l-6.878-21.145l-0.258-0.794c0.513,0.229,1.023,0.464,1.533,0.707l0.265,0.806l7.084,21.779L133.944,36.52z"/>
	<path clip-path="url(#SVGID_2_)" fill="#8C6E47" d="M141.454,43.669c-0.365-0.41-0.746-0.812-1.123-1.217l-0.699-0.726l-0.281-1.01
		l-6.568-23.56l-0.242-0.858c0.517,0.3,1.033,0.603,1.539,0.907l0.249,0.881l6.829,24.515L141.454,43.669z"/>
	<path clip-path="url(#SVGID_2_)" fill="#8C6E47" d="M146.375,49.764c-0.236-0.329-0.479-0.658-0.721-0.987
		c-0.255-0.343-0.516-0.675-0.773-1.011l-0.12-0.974l-2.872-23.46l-0.106-0.871c0.465,0.361,0.923,0.719,1.385,1.087l0.103,0.881
		l2.982,24.312L146.375,49.764z"/>
	<path clip-path="url(#SVGID_2_)" fill="#8C6E47" d="M151.409,31.064v26.862c-0.168-0.336-0.349-0.665-0.526-0.995
		c-0.238-0.419-0.475-0.842-0.717-1.265V29.8C150.588,30.22,151.005,30.642,151.409,31.064"/>
	<path clip-path="url(#SVGID_2_)" fill="#8C6E47" d="M157.988,38.76l-0.081,0.92L155.6,66.138l-0.107,1.21
		c-0.316-0.913-0.652-1.827-1.01-2.721l0.097-1.123l2.211-25.289l0.074-0.901C157.249,37.792,157.623,38.276,157.988,38.76"/>
	<path clip-path="url(#SVGID_2_)" fill="#8C6E47" d="M164.516,48.778l-0.223,0.862l-6.387,24.182l-0.28,1.049
		c-0.184-0.832-0.385-1.658-0.601-2.478l-0.014-0.055l0.255-0.988l6.152-23.259l0.222-0.852
		C163.939,47.749,164.236,48.262,164.516,48.778"/>
	<path clip-path="url(#SVGID_2_)" fill="#8C6E47" d="M168.433,56.777l-0.316,0.846l-8.889,23.501l-0.384,1.014
		c-0.038-0.336-0.074-0.678-0.119-1.014c-0.062-0.464-0.129-0.929-0.197-1.384l-0.032-0.191l0.368-0.955l8.546-22.617l0.316-0.826
		C167.968,55.689,168.204,56.232,168.433,56.777"/>
	<path clip-path="url(#SVGID_2_)" fill="#8C6E47" d="M172.225,67.713l-0.429,0.801L159.78,90.911l-0.531,0.994
		c0.019-0.664,0.028-1.326,0.028-1.991l-0.003-0.684l0.487-0.917l11.557-21.536l0.416-0.784
		C171.91,66.564,172.07,67.142,172.225,67.713"/>
	<path clip-path="url(#SVGID_2_)" fill="#8C6E47" d="M174.404,78.512l-0.533,0.671l-14.5,18.332l-0.601,0.765l0.101-0.833
		c0.048-0.452,0.09-0.917,0.135-1.384l0.007-0.097l0.571-0.72l14.045-17.757l0.526-0.671
		C174.249,77.383,174.33,77.947,174.404,78.512"/>
	<path clip-path="url(#SVGID_2_)" fill="#8C6E47" d="M175.061,85.7l-0.591,0.752c-1.791,2.272-4.505,5.529-8.552,10.257
		c-2.834,3.314-5.722,6.622-7.994,9.217l-0.727,0.826c0.139-0.539,0.262-1.075,0.388-1.614c0.074-0.309,0.142-0.613,0.203-0.929
		l0.678-0.778c6.032-6.913,12.587-14.591,15.914-18.867l0.568-0.739C174.994,84.448,175.03,85.074,175.061,85.7"/>
	<path clip-path="url(#SVGID_2_)" fill="#8C6E47" d="M174.881,96.914c-0.048,0.565-0.1,1.13-0.155,1.688l-0.684,0.516
		l-18.222,13.946l-0.742,0.571l0.142-0.384c0.161-0.455,0.323-0.913,0.478-1.378l0.117-0.374l0.713-0.546l17.683-13.529
		L174.881,96.914z"/>
	<path clip-path="url(#SVGID_2_)" fill="#8C6E47" d="M173.59,106.236c-0.112,0.591-0.235,1.172-0.364,1.756l-0.745,0.516
		l-21.078,14.485l-0.943,0.651c0.439-0.788,0.869-1.582,1.278-2.389l0.875-0.603l20.245-13.915L173.59,106.236z"/>
	<path clip-path="url(#SVGID_2_)" fill="#8C6E47" d="M170.959,116.334c-0.188,0.558-0.371,1.117-0.571,1.675l-0.801,0.404
		l-22.33,11.266l-0.955,0.484c0.258-0.368,0.52-0.732,0.773-1.107v-0.006c0.236-0.336,0.473-0.675,0.694-1.023l0.927-0.465
		l21.475-10.831L170.959,116.334z"/>
	<path clip-path="url(#SVGID_2_)" fill="#8C6E47" d="M167.471,125.222c-0.249,0.539-0.497,1.081-0.76,1.613l-0.854,0.323
		l-23.627,8.888l-1.023,0.385c0.364-0.397,0.727-0.802,1.078-1.211v-0.007l0.658-0.762l0.975-0.368l22.728-8.546L167.471,125.222z"
		/>
	<path clip-path="url(#SVGID_2_)" fill="#8C6E47" d="M161.543,136.002c-0.328,0.504-0.665,1.007-1.007,1.501l-0.891,0.206v0.007
		l-25.112,5.771l-0.006,0.007l-1.124,0.255c0.714-0.565,1.408-1.156,2.098-1.756l1.043-0.242l24.118-5.548L161.543,136.002z"/>
	<path clip-path="url(#SVGID_2_)" fill="#8C6E47" d="M155.84,143.786c-0.371,0.458-0.759,0.912-1.143,1.364l-0.906,0.087v0.008
		l-24.98,2.501l-0.007,0.006l-1.084,0.106c0.729-0.474,1.459-0.962,2.165-1.465l1.024-0.1l0.006-0.007l24.037-2.407L155.84,143.786z
		"/>
	<path clip-path="url(#SVGID_2_)" fill="#8C6E47" d="M148.504,151.636c-0.452,0.437-0.907,0.849-1.365,1.265h-0.007
		c-0.297,0-0.606,0.008-0.937,0.014c-1.154,0.013-2.494,0.02-4.06,0.02c-2.623,0-5.877-0.025-9.905-0.067
		c-4.282-0.053-8.571-0.126-12.079-0.194c-0.396-0.006-0.774-0.013-1.146-0.019c0.829-0.379,1.655-0.775,2.469-1.191
		c0.355,0.006,0.707,0.013,1.062,0.019c9.333,0.168,19.209,0.275,25.048,0.176C147.9,151.649,148.213,151.643,148.504,151.636"/>
	<path clip-path="url(#SVGID_2_)" fill="#8C6E47" d="M141.404,157.65c-0.491,0.371-0.981,0.739-1.485,1.098l-0.929-0.097
		l-26.936-2.708l-1.271-0.123c0.962-0.3,1.917-0.623,2.866-0.962l1.136,0.11l25.706,2.588L141.404,157.65z"/>
	<path clip-path="url(#SVGID_2_)" fill="#8C6E47" d="M132.554,163.516c-0.517,0.304-1.03,0.597-1.553,0.881l-0.895-0.222
		l-24.905-6.35l-1.11-0.287c0.9-0.174,1.788-0.378,2.676-0.597h0.007l1.022,0.261l23.896,6.098L132.554,163.516z"/>
	<path clip-path="url(#SVGID_2_)" fill="#8C6E47" d="M123.735,167.941l-1.694,0.707l-0.882-0.311l-25.415-9.11l-1.185-0.43
		c0.997-0.055,1.991-0.142,2.985-0.249l1.084,0.395l24.251,8.695L123.735,167.941z"/>
	<path clip-path="url(#SVGID_2_)" fill="#8C6E47" d="M112.463,171.361l-0.315,0.604l-0.788,0.209l-0.82-0.435l-23.324-12.361
		l-1.062-0.565c0.943,0.062,1.895,0.098,2.85,0.104l0.988,0.53h0.006l22.311,11.834L112.463,171.361z"/>
	<path clip-path="url(#SVGID_2_)" fill="#8C6E47" d="M104.96,173.551c-0.626,0.106-1.259,0.21-1.888,0.304l-0.83-0.504
		l-24.882-15.11h-0.007l-1.246-0.765c1.123,0.235,2.266,0.442,3.405,0.623h0.007l1.12,0.68h0.003l23.505,14.275L104.96,173.551z"/>
	<path clip-path="url(#SVGID_2_)" fill="#8C6E47" d="M92.417,174.799c-0.545,0.013-1.088,0.02-1.633,0.025l-0.584-0.623
		c-3.767-3.928-11.68-11.393-17.854-17.099H72.34l-0.814-0.748c0.471,0.129,0.943,0.258,1.42,0.384
		c0.375,0.101,0.759,0.193,1.136,0.284h0.007l0.745,0.697c2.124,1.972,4.909,4.566,7.652,7.181c5.051,4.802,7.865,7.607,9.386,9.291
		h0.006L92.417,174.799z"/>
	<path clip-path="url(#SVGID_2_)" fill="#8C6E47" d="M82.089,174.432c-0.597-0.055-1.191-0.115-1.788-0.187l-0.594-0.7
		l-16.721-19.681l-0.745-0.875c0.839,0.372,1.681,0.732,2.54,1.068h0.006l0.694,0.823h0.006l16.024,18.867L82.089,174.432z"/>
	<path clip-path="url(#SVGID_2_)" fill="#8C6E47" d="M71.259,172.682c-0.565-0.129-1.13-0.268-1.688-0.403l-0.452-0.759
		l-12.37-20.696l-0.53-0.882c0.317,0.188,0.636,0.365,0.959,0.539h0.003c0.394,0.213,0.778,0.416,1.181,0.626l0.491,0.826h0.006
		l11.958,20.01L71.259,172.682z"/>
	<path clip-path="url(#SVGID_2_)" fill="#8C6E47" d="M61.826,169.927c-0.571-0.2-1.136-0.41-1.701-0.626h-0.006l-0.41-0.833h-0.007
		l-11.673-23.359l-0.007-0.007l-0.438-0.881l0.074-0.039c0.681,0.539,1.378,1.068,2.085,1.579l0.484,0.971h0.006l11.19,22.395h0.006
		L61.826,169.927z"/>
	<path clip-path="url(#SVGID_2_)" fill="#8C6E47" d="M51.647,165.527c-0.516-0.262-1.023-0.526-1.533-0.801l-0.248-0.852h-0.007
		l-6.813-22.969l-0.274-0.917l0.026-0.007l1.742,1.601l0.275,0.917l6.59,22.201L51.647,165.527z"/>
	<path clip-path="url(#SVGID_2_)" fill="#8C6E47" d="M43.721,160.909c-0.471-0.31-0.936-0.62-1.404-0.942l-0.129-0.846
		l-3.476-22.611L38.57,135.6l1.514,1.669l0.135,0.874l3.373,21.927L43.721,160.909z"/>
	<path clip-path="url(#SVGID_2_)" fill="#8C6E47" d="M35.882,132.377v22.705c-0.416-0.349-0.833-0.704-1.243-1.056v-23.275
		C35.043,131.303,35.459,131.846,35.882,132.377"/>
	<path clip-path="url(#SVGID_2_)" fill="#8C6E47" d="M175.06,85.698c-0.028-0.626-0.067-1.252-0.109-1.872
		c-0.126-1.788-0.311-3.556-0.546-5.315c-0.074-0.565-0.154-1.13-0.248-1.695c-0.479-3.088-1.123-6.125-1.931-9.104
		c-0.155-0.571-0.315-1.146-0.49-1.717c-0.927-3.153-2.03-6.232-3.302-9.217c-0.232-0.546-0.468-1.088-0.71-1.627
		c-0.978-2.172-2.046-4.302-3.208-6.374c-0.278-0.516-0.578-1.029-0.875-1.539c-1.713-2.941-3.604-5.771-5.654-8.479
		c-0.364-0.484-0.738-0.968-1.123-1.446c-1.714-2.171-3.536-4.256-5.453-6.248c-0.404-0.422-0.82-0.845-1.243-1.268
		c-2.214-2.208-4.555-4.292-7-6.248c-0.458-0.368-0.92-0.726-1.385-1.088c-2.463-1.885-5.034-3.643-7.703-5.257
		c-0.507-0.303-1.023-0.607-1.536-0.904c-2.024-1.168-4.106-2.253-6.233-3.253c-0.509-0.242-1.019-0.478-1.533-0.707
		c-3.266-1.458-6.641-2.721-10.11-3.763c-0.545-0.161-1.084-0.323-1.64-0.471c-2.326-0.652-4.695-1.204-7.104-1.656
		c-0.555-0.1-1.1-0.2-1.652-0.293c-2.918-0.484-5.877-0.817-8.888-0.998c-0.552-0.038-1.111-0.061-1.669-0.087
		c-1.149-0.045-2.298-0.068-3.456-0.068c-1.788,0-3.557,0.055-5.313,0.168c-0.571,0.029-1.136,0.074-1.7,0.116
		c-3.167,0.262-6.278,0.698-9.337,1.291c-0.552,0.113-1.097,0.223-1.649,0.349h-0.007c-3.208,0.687-6.348,1.568-9.408,2.617
		c-0.542,0.181-1.081,0.375-1.613,0.565c-3.066,1.12-6.052,2.411-8.94,3.863c-0.526,0.265-1.049,0.533-1.568,0.807
		c-3.18,1.675-6.233,3.547-9.157,5.603c-0.49,0.348-0.974,0.694-1.458,1.049c-1.798,1.323-3.551,2.711-5.238,4.169
		c-0.42,0.368-0.843,0.74-1.259,1.114c-1.814,1.617-3.544,3.311-5.202,5.083c-0.372,0.391-0.736,0.787-1.091,1.184
		c-1.44,1.595-2.824,3.241-4.148,4.935c-0.316,0.41-0.632,0.82-0.942,1.233c-0.484,0.652-0.962,1.304-1.427,1.969l-0.955,1.391
		c-0.49,0.726-0.974,1.465-1.449,2.207c-0.277,0.449-0.558,0.901-0.836,1.356v0.006c-1.081,1.791-2.104,3.631-3.059,5.509
		c-0.162,0.31-0.317,0.623-0.465,0.939l-0.3,0.594l-0.371,0.788l-0.068,0.145c-0.875,1.869-1.688,3.773-2.42,5.715
		c-0.207,0.52-0.398,1.043-0.585,1.569c-0.907,2.533-1.7,5.115-2.365,7.752c-0.136,0.545-0.272,1.094-0.397,1.646
		c-0.601,2.588-1.078,5.225-1.44,7.901c-0.074,0.552-0.142,1.103-0.203,1.655c-0.355,3.111-0.536,6.271-0.542,9.473v0.148
		c0,0.51,0.006,1.014,0.013,1.52c0.061,3.295,0.303,6.555,0.732,9.75l0.026,0.187c0.426,3.153,1.03,6.252,1.791,9.285
		c0.139,0.539,0.275,1.075,0.423,1.607c0.72,2.637,1.565,5.219,2.527,7.753c0.187,0.503,0.384,1,0.584,1.494
		c1.298,3.218,2.779,6.332,4.444,9.343c0.265,0.491,0.546,0.979,0.823,1.465c1.343,2.314,2.789,4.562,4.335,6.733
		c0.329,0.464,0.661,0.926,1.01,1.384c1.82,2.45,3.766,4.802,5.848,7.045c0.365,0.407,0.742,0.812,1.129,1.211
		c1.788,1.859,3.654,3.641,5.609,5.335c0.41,0.354,0.827,0.71,1.243,1.056c2.066,1.726,4.215,3.358,6.435,4.886
		c0.465,0.323,0.93,0.633,1.404,0.941c2.072,1.359,4.202,2.632,6.39,3.818c0.51,0.272,1.02,0.54,1.533,0.801
		c2.744,1.407,5.568,2.669,8.472,3.773h0.007c0.564,0.216,1.129,0.429,1.7,0.626c2.534,0.907,5.116,1.688,7.746,2.352
		c0.559,0.137,1.123,0.275,1.688,0.404c2.963,0.678,5.977,1.204,9.043,1.565c0.597,0.067,1.191,0.129,1.788,0.184
		c2.688,0.262,5.412,0.395,8.169,0.395h0.526c0.545-0.008,1.087-0.014,1.633-0.026c3.61-0.093,7.168-0.41,10.656-0.942
		c0.627-0.094,1.259-0.2,1.885-0.307c2.163-0.378,4.296-0.842,6.399-1.378l0.788-0.21c3.389-0.9,6.69-2.01,9.896-3.314l1.693-0.707
		c2.488-1.067,4.909-2.253,7.269-3.544c0.52-0.287,1.036-0.577,1.549-0.881c2.547-1.459,5.003-3.053,7.368-4.767
		c0.504-0.361,0.994-0.727,1.484-1.101c1.979-1.494,3.89-3.076,5.729-4.748h0.007c0.458-0.416,0.91-0.829,1.365-1.265
		c2.178-2.049,4.244-4.221,6.193-6.487c0.384-0.452,0.768-0.902,1.143-1.364c1.662-2.018,3.234-4.115,4.695-6.28
		c0.343-0.497,0.678-0.998,1.007-1.501c1.905-2.938,3.631-5.997,5.171-9.169c0.261-0.532,0.51-1.072,0.758-1.614
		c1.078-2.343,2.053-4.754,2.914-7.21c0.201-0.558,0.388-1.116,0.572-1.675c0.894-2.728,1.651-5.505,2.265-8.342
		c0.133-0.584,0.255-1.169,0.368-1.756c0.491-2.508,0.875-5.054,1.136-7.636c0.056-0.558,0.104-1.123,0.155-1.688
		c0.184-2.307,0.284-4.641,0.284-7C175.167,88.5,175.131,87.096,175.06,85.698 M174.211,97.423
		c-0.048,0.571-0.107,1.136-0.168,1.694c-0.277,2.582-0.678,5.122-1.185,7.623c-0.12,0.594-0.249,1.185-0.381,1.769
		c-0.633,2.792-1.4,5.541-2.308,8.223c-0.188,0.565-0.384,1.124-0.584,1.683c-0.875,2.433-1.862,4.809-2.94,7.123
		c-0.262,0.548-0.522,1.087-0.787,1.619c-1.546,3.131-3.278,6.151-5.196,9.044c-0.329,0.51-0.671,1.013-1.017,1.51v0.007
		c-1.465,2.127-3.037,4.182-4.692,6.161c-0.381,0.458-0.766,0.913-1.162,1.357v0.008c-1.955,2.245-4.027,4.383-6.206,6.412
		c-0.458,0.424-0.923,0.843-1.392,1.259c-1.83,1.627-3.733,3.179-5.702,4.645c-0.497,0.371-1,0.729-1.5,1.09
		c-2.348,1.669-4.78,3.222-7.302,4.648c-0.519,0.3-1.048,0.59-1.581,0.878c-2.346,1.265-4.76,2.42-7.231,3.463
		c-0.572,0.242-1.144,0.471-1.718,0.7c-2.875,1.136-5.828,2.124-8.853,2.942c-0.588,0.155-1.178,0.311-1.769,0.459
		c-2.104,0.52-4.231,0.962-6.391,1.316c-0.636,0.11-1.268,0.21-1.906,0.297c-3.396,0.484-6.853,0.769-10.363,0.836h-0.007
		c-0.535,0.007-1.074,0.014-1.613,0.014h-0.058c-2.935,0-5.833-0.155-8.689-0.452c-0.606-0.062-1.21-0.132-1.804-0.206
		c-3.017-0.378-5.983-0.917-8.888-1.602c-0.571-0.136-1.136-0.277-1.701-0.423c-2.614-0.681-5.176-1.48-7.69-2.395h-0.007
		c-0.571-0.209-1.142-0.427-1.714-0.658h-0.006c-2.847-1.104-5.609-2.363-8.298-3.766c-0.519-0.275-1.029-0.547-1.539-0.827h-0.006
		c-2.147-1.179-4.238-2.443-6.268-3.806c-0.471-0.31-0.936-0.632-1.401-0.948c-2.178-1.52-4.282-3.141-6.306-4.854
		c-0.416-0.352-0.833-0.707-1.243-1.064c-1.917-1.695-3.766-3.471-5.528-5.332c-0.387-0.403-0.765-0.813-1.136-1.224
		c-2.049-2.24-3.973-4.593-5.774-7.046c-0.335-0.464-0.668-0.935-0.997-1.407c-1.517-2.155-2.93-4.389-4.241-6.689
		c-0.277-0.484-0.552-0.976-0.82-1.465c-1.62-2.974-3.059-6.059-4.318-9.237c-0.193-0.503-0.39-1.004-0.577-1.514
		c-0.943-2.521-1.763-5.096-2.463-7.727c-0.145-0.542-0.281-1.081-0.416-1.62c-0.639-2.627-1.162-5.299-1.546-8.02
		c-0.068-0.471-0.136-0.942-0.2-1.42c-0.391-3.16-0.613-6.374-0.649-9.634c-0.006-0.316-0.006-0.639-0.006-0.955l0.006-0.726
		c0.023-3.173,0.223-6.3,0.594-9.372c0.068-0.559,0.135-1.111,0.216-1.662c0.374-2.65,0.865-5.264,1.478-7.827
		c0.136-0.558,0.275-1.11,0.417-1.659c0.677-2.598,1.471-5.144,2.381-7.639c0.2-0.526,0.397-1.062,0.604-1.581
		c0.745-1.917,1.552-3.792,2.433-5.635h0.007c0.142-0.316,0.29-0.629,0.445-0.939l0.294-0.594c0.161-0.31,0.316-0.63,0.477-0.939
		c0.943-1.83,1.953-3.618,3.021-5.367c0.288-0.455,0.565-0.907,0.852-1.353c0.484-0.752,0.975-1.497,1.475-2.23
		c0.323-0.465,0.646-0.929,0.975-1.391c0.449-0.62,0.894-1.239,1.359-1.849c0.313-0.413,0.635-0.823,0.952-1.233
		c1.326-1.688,2.711-3.314,4.156-4.893c0.362-0.397,0.733-0.794,1.104-1.184c1.672-1.749,3.415-3.431,5.229-5.041
		c0.419-0.371,0.848-0.743,1.278-1.104c1.7-1.452,3.456-2.83,5.267-4.141c0.49-0.351,0.981-0.7,1.478-1.042
		c2.904-2.004,5.945-3.834,9.098-5.467c0.523-0.271,1.049-0.539,1.584-0.801h0.007c2.853-1.407,5.803-2.662,8.83-3.74
		c0.539-0.194,1.081-0.381,1.626-0.565c3.034-1.013,6.145-1.856,9.321-2.527c0.555-0.113,1.107-0.223,1.672-0.336h0.006
		c3.028-0.564,6.119-0.974,9.26-1.21c0.571-0.042,1.142-0.081,1.713-0.113c1.543-0.087,3.102-0.129,4.674-0.129
		c1.332,0,2.662,0.032,3.982,0.094c0.559,0.025,1.116,0.055,1.678,0.1c2.979,0.19,5.906,0.545,8.795,1.049
		c0.552,0.09,1.104,0.196,1.655,0.303c2.382,0.465,4.734,1.023,7.046,1.688c0.552,0.155,1.097,0.316,1.643,0.49
		c3.427,1.056,6.761,2.321,9.982,3.786c0.513,0.236,1.028,0.478,1.536,0.72c2.124,1.016,4.191,2.117,6.209,3.301
		c0.52,0.304,1.036,0.614,1.543,0.93c2.621,1.614,5.147,3.366,7.562,5.244c0.465,0.362,0.923,0.727,1.384,1.101
		c2.408,1.956,4.709,4.04,6.895,6.245c0.416,0.42,0.833,0.849,1.243,1.284c1.891,1.998,3.685,4.083,5.38,6.255
		c0.377,0.484,0.752,0.975,1.116,1.465c1.997,2.689,3.841,5.493,5.513,8.411c0.297,0.513,0.584,1.029,0.874,1.549
		c1.123,2.062,2.166,4.173,3.115,6.338c0.241,0.546,0.477,1.091,0.71,1.643c1.231,2.976,2.307,6.029,3.2,9.156
		c0.162,0.578,0.323,1.156,0.479,1.736c0.768,2.931,1.384,5.929,1.83,8.976c0.087,0.558,0.168,1.123,0.242,1.694
		c0.222,1.775,0.396,3.57,0.51,5.38c0.035,0.629,0.074,1.256,0.093,1.888c0.049,1.149,0.074,2.304,0.074,3.463
		C174.546,92.446,174.434,94.948,174.211,97.423"/>
	<path clip-path="url(#SVGID_2_)" fill="#8C6E47" d="M159.763,88.314c-0.006-0.623-0.032-1.236-0.063-1.852
		c-0.023-0.514-0.056-1.023-0.092-1.53c-0.087-1.282-0.219-2.553-0.381-3.805l-0.066-0.549c-0.062-0.465-0.123-0.923-0.197-1.388
		l-0.1-0.597c-0.263-1.614-0.585-3.201-0.955-4.773c-0.168-0.7-0.344-1.394-0.53-2.085l-0.109-0.384
		c-0.094-0.342-0.188-0.691-0.294-1.023c-0.416-1.417-0.875-2.814-1.378-4.192c-0.323-0.888-0.662-1.762-1.017-2.631l-0.304-0.726
		c-0.193-0.445-0.388-0.887-0.584-1.333c-0.7-1.558-1.466-3.098-2.284-4.592l-0.343-0.623c-0.229-0.423-0.472-0.842-0.72-1.265
		l-0.178-0.304c-1.203-2.043-2.507-4.021-3.918-5.922l-0.532-0.713c-0.3-0.397-0.604-0.794-0.92-1.184l-0.035-0.052
		c-1.143-1.446-2.347-2.84-3.609-4.189c-0.264-0.297-0.545-0.588-0.822-0.881c-0.319-0.33-0.652-0.672-0.981-1.004l-0.032-0.032
		c-1.794-1.782-3.679-3.47-5.66-5.051l-0.074-0.065c-0.378-0.303-0.752-0.593-1.136-0.894l-0.533-0.397
		c-1.85-1.387-3.779-2.698-5.773-3.901l-0.546-0.323l-0.713-0.423c-0.41-0.236-0.826-0.471-1.249-0.694
		c-1.259-0.697-2.543-1.355-3.854-1.969c-0.416-0.2-0.829-0.39-1.253-0.577l-0.16-0.068c-0.665-0.297-1.33-0.584-2.005-0.855
		c-1.994-0.814-4.033-1.533-6.115-2.156l-0.137-0.042c-0.402-0.12-0.8-0.236-1.21-0.349l-0.861-0.229
		c-1.626-0.436-3.279-0.807-4.954-1.123l-0.31-0.055c-0.349-0.064-0.693-0.126-1.043-0.187c-0.396-0.068-0.794-0.129-1.196-0.181
		c-1.998-0.303-4.022-0.513-6.084-0.639c-0.353-0.019-0.713-0.035-1.078-0.055l-0.287-0.013c-0.646-0.025-1.291-0.045-1.937-0.048
		c-0.297-0.006-0.594-0.006-0.894-0.006c-1.466,0-2.911,0.042-4.351,0.135c-0.465,0.026-0.929,0.061-1.391,0.1l-0.109,0.013
		c-0.759,0.062-1.514,0.136-2.266,0.223c-1.775,0.203-3.518,0.478-5.251,0.819h-0.007h-0.012c-0.452,0.091-0.901,0.178-1.353,0.285
		H75.51c-0.365,0.08-0.726,0.161-1.085,0.242c-2.249,0.529-4.457,1.161-6.616,1.901l-0.132,0.041
		c-0.397,0.136-0.794,0.281-1.191,0.423c-0.429,0.155-0.858,0.317-1.278,0.484c-2.062,0.794-4.079,1.695-6.038,2.676l-0.704,0.358
		l-0.581,0.303c-0.461,0.243-0.913,0.491-1.362,0.74c-2.091,1.161-4.115,2.427-6.061,3.798l-0.077,0.052
		c-0.404,0.284-0.8,0.568-1.191,0.862l-0.329,0.248c-1.365,0.997-2.686,2.052-3.964,3.163l-0.609,0.542l-0.155,0.135l-0.268,0.23
		c-0.371,0.335-0.743,0.671-1.104,1.02l-0.113,0.103c-0.929,0.878-1.836,1.775-2.717,2.701l-0.323,0.342
		c-0.303,0.323-0.607,0.646-0.894,0.968l-0.107,0.117c-0.332,0.374-0.668,0.745-0.99,1.123c-0.307,0.355-0.61,0.713-0.907,1.074
		l-0.559,0.678c-0.28,0.345-0.558,0.694-0.826,1.049h-0.006c-0.668,0.862-1.314,1.736-1.943,2.624l-0.607,0.881l-0.174,0.255
		c-0.355,0.523-0.694,1.042-1.03,1.575c-0.968,1.517-1.881,3.072-2.724,4.67c-0.213,0.397-0.416,0.794-0.622,1.191l-0.41,0.82
		l-0.217,0.438c-0.848,1.769-1.633,3.576-2.333,5.426l-0.006,0.019c-0.168,0.426-0.33,0.849-0.478,1.285l-0.255,0.732
		c-0.639,1.836-1.204,3.711-1.681,5.616c-0.094,0.368-0.188,0.732-0.275,1.103l-0.055,0.243c-0.142,0.616-0.28,1.236-0.397,1.862
		c-0.309,1.517-0.571,3.053-0.781,4.605c-0.058,0.391-0.106,0.788-0.145,1.181l-0.023,0.178c-0.08,0.71-0.148,1.417-0.206,2.13
		c-0.155,1.856-0.229,3.731-0.236,5.622v0.126c0,0.416,0.007,0.823,0.013,1.246v0.08c0.013,0.713,0.039,1.43,0.074,2.137
		c0.094,1.943,0.268,3.866,0.523,5.764l0.023,0.155c0.068,0.497,0.139,0.994,0.219,1.491c0.097,0.652,0.21,1.304,0.333,1.949
		c0.261,1.401,0.565,2.792,0.913,4.164c0.113,0.442,0.223,0.874,0.349,1.316l0.135,0.484c0.194,0.688,0.397,1.378,0.617,2.053
		c0.397,1.284,0.836,2.553,1.313,3.811l0.255,0.651l0.223,0.572c0.213,0.517,0.423,1.029,0.645,1.539
		c0.901,2.091,1.901,4.128,2.992,6.106c0.22,0.391,0.442,0.78,0.652,1.169l0.026,0.035c0.348,0.597,0.694,1.181,1.062,1.762
		c0.787,1.281,1.62,2.526,2.488,3.75c0.268,0.378,0.545,0.759,0.826,1.136l0.236,0.31c0.403,0.539,0.819,1.075,1.239,1.602
		c0.9,1.136,1.843,2.24,2.831,3.313l0.483,0.539c0.301,0.336,0.611,0.665,0.927,0.994l0.1,0.101c0.91,0.948,1.856,1.876,2.824,2.763
		c0.545,0.513,1.104,1.017,1.668,1.507l0.1,0.087c0.304,0.263,0.607,0.515,0.917,0.775c0.752,0.626,1.507,1.235,2.291,1.827
		l0.007,0.006c0.72,0.558,1.452,1.097,2.195,1.624h0.006l0.771,0.548c0.378,0.258,0.762,0.513,1.149,0.768
		c1.495,0.981,3.021,1.904,4.599,2.776l0.639,0.352c0.417,0.227,0.83,0.442,1.252,0.651l0.213,0.107h0.004
		c1.355,0.693,2.727,1.339,4.127,1.93c0.827,0.362,1.653,0.694,2.495,1.016h0.007l0.093,0.039c0.465,0.182,0.927,0.355,1.398,0.518
		c1.755,0.626,3.543,1.184,5.36,1.668h0.007c0.323,0.087,0.645,0.175,0.975,0.255c0.455,0.109,0.919,0.223,1.377,0.329l0.136,0.028
		c0.833,0.194,1.678,0.368,2.521,0.523h0.006c1.088,0.21,2.172,0.391,3.279,0.539h0.003c0.491,0.068,0.975,0.136,1.466,0.194
		c0.484,0.055,0.974,0.103,1.458,0.147c1.211,0.117,2.421,0.204,3.65,0.255c0.92,0.042,1.843,0.062,2.776,0.068h0.699
		c0.446-0.006,0.889-0.013,1.333-0.02c1.249-0.032,2.488-0.1,3.719-0.199c0.968-0.075,1.93-0.165,2.885-0.284
		c0.717-0.088,1.424-0.188,2.124-0.291c0.516-0.074,1.03-0.161,1.546-0.248c0.975-0.175,1.943-0.362,2.905-0.578
		c0.78-0.168,1.564-0.355,2.333-0.552l0.261-0.068l0.384-0.1c1.312-0.349,2.603-0.732,3.873-1.162
		c0.92-0.303,1.83-0.626,2.731-0.975c0.503-0.184,1-0.378,1.497-0.584l1.388-0.574c0.839-0.361,1.665-0.732,2.484-1.137
		c0.808-0.374,1.602-0.771,2.383-1.19c0.367-0.188,0.726-0.381,1.087-0.578c0.426-0.229,0.849-0.471,1.271-0.719
		c1.333-0.766,2.63-1.578,3.908-2.435l0.007-0.006c0.713-0.465,1.41-0.955,2.099-1.452l0.006-0.007l0.013-0.006
		c0.41-0.291,0.813-0.597,1.21-0.901c0.813-0.612,1.607-1.238,2.388-1.888l0.008-0.003c0.684-0.565,1.354-1.142,2.01-1.74
		l0.288-0.254h0.006c0.378-0.339,0.746-0.681,1.117-1.037c1.494-1.407,2.924-2.878,4.275-4.411c0.274-0.297,0.533-0.597,0.794-0.9
		c0.297-0.355,0.604-0.707,0.895-1.062l0.045-0.054c1.151-1.404,2.259-2.857,3.295-4.351l0.552-0.795
		c0.278-0.402,0.552-0.819,0.826-1.229l0.062-0.094c0.954-1.485,1.861-3.005,2.703-4.567c0.424-0.771,0.826-1.552,1.21-2.34
		l0.256-0.51c0.213-0.436,0.417-0.874,0.619-1.316c0.865-1.879,1.646-3.805,2.334-5.764l0.052-0.143
		c0.168-0.462,0.315-0.914,0.471-1.372l0.187-0.597c0.533-1.652,0.991-3.327,1.396-5.028c0.093-0.404,0.187-0.807,0.274-1.21
		c0.094-0.426,0.187-0.856,0.268-1.285l0.029-0.148c0.374-1.895,0.665-3.818,0.878-5.768l0.055-0.487
		c0.042-0.455,0.087-0.92,0.122-1.378l0.032-0.404c0.109-1.436,0.175-2.882,0.196-4.334c0.008-0.332,0.008-0.661,0.008-0.997
		C159.787,89.379,159.779,88.846,159.763,88.314 M159.248,91.906c-0.039,1.365-0.116,2.711-0.236,4.06l-0.006,0.097
		c-0.042,0.468-0.087,0.933-0.136,1.385l-0.101,0.832c-0.216,1.83-0.51,3.631-0.874,5.412l-0.106,0.517
		c-0.062,0.316-0.129,0.619-0.203,0.929c-0.126,0.539-0.249,1.075-0.387,1.614c-0.404,1.607-0.862,3.195-1.383,4.747l-0.118,0.375
		c-0.155,0.465-0.317,0.923-0.479,1.375l-0.142,0.387c-0.685,1.862-1.439,3.68-2.266,5.448c-0.217,0.448-0.43,0.895-0.646,1.329
		l-0.43,0.843c-0.409,0.808-0.836,1.601-1.277,2.392c-0.801,1.42-1.653,2.817-2.55,4.17l-0.14,0.21
		c-0.222,0.348-0.458,0.689-0.693,1.025v0.004c-0.254,0.375-0.517,0.738-0.774,1.106c-0.975,1.353-2.001,2.669-3.066,3.941
		l-0.294,0.348l-0.657,0.762v0.007c-0.353,0.409-0.714,0.813-1.078,1.211c-1.278,1.403-2.621,2.742-4.005,4.039
		c-0.378,0.35-0.756,0.694-1.137,1.03l-0.564,0.491c-0.688,0.604-1.381,1.19-2.099,1.755c-0.654,0.536-1.325,1.055-2.01,1.56
		c-0.41,0.303-0.819,0.604-1.227,0.894l-0.281,0.194c-0.706,0.5-1.433,0.989-2.165,1.462c-1.156,0.752-2.327,1.465-3.531,2.148
		c-0.429,0.249-0.864,0.484-1.297,0.721c-0.471,0.255-0.946,0.497-1.417,0.738c-0.812,0.416-1.636,0.813-2.469,1.191
		c-0.671,0.315-1.353,0.613-2.037,0.907c-0.464,0.195-0.935,0.384-1.407,0.57c-0.635,0.248-1.273,0.49-1.913,0.727
		c-0.948,0.339-1.904,0.662-2.865,0.962c-0.82,0.255-1.641,0.497-2.473,0.719c-0.478,0.13-0.962,0.255-1.446,0.378l-0.091,0.026
		h-0.006c-0.888,0.216-1.774,0.423-2.676,0.594h-0.006c-0.813,0.174-1.627,0.322-2.453,0.461c-0.519,0.087-1.036,0.168-1.562,0.242
		c-0.839,0.116-1.685,0.223-2.526,0.31c-0.994,0.107-1.985,0.191-2.985,0.249c-0.988,0.062-1.975,0.106-2.973,0.122H91.58
		c-0.442,0.008-0.881,0.014-1.323,0.014h-0.042c-0.404,0-0.807-0.006-1.211-0.02c-0.955-0.007-1.907-0.042-2.849-0.104h-0.007
		c-1.023-0.059-2.043-0.146-3.053-0.248c-0.497-0.053-0.987-0.106-1.478-0.168c-0.7-0.087-1.401-0.188-2.098-0.297h-0.006
		c-1.139-0.181-2.282-0.388-3.405-0.623h-0.006c-0.591-0.122-1.182-0.256-1.763-0.391l-0.248-0.062h-0.007
		c-0.381-0.093-0.764-0.188-1.136-0.287c-0.477-0.122-0.949-0.251-1.423-0.384c-1.649-0.465-3.276-0.994-4.876-1.575
		c-0.472-0.174-0.937-0.348-1.404-0.542h-0.007l-0.452-0.177h-0.006c-0.855-0.336-1.701-0.697-2.537-1.069
		c-1.291-0.571-2.559-1.184-3.798-1.836l-0.081-0.045c-0.404-0.21-0.791-0.417-1.181-0.626h-0.007
		c-0.323-0.175-0.639-0.355-0.955-0.539c-1.42-0.808-2.818-1.672-4.176-2.576c-0.384-0.255-0.772-0.522-1.149-0.784
		c-0.391-0.265-0.775-0.545-1.156-0.826c-0.706-0.507-1.4-1.035-2.084-1.574c-0.653-0.511-1.292-1.036-1.924-1.572
		c-0.342-0.29-0.681-0.574-1.017-0.875l-0.174-0.154c-0.591-0.526-1.175-1.062-1.743-1.601c-0.894-0.843-1.765-1.714-2.614-2.608
		l-0.1-0.103c-0.271-0.3-0.552-0.604-0.826-0.901l-0.688-0.771c-0.935-1.042-1.829-2.114-2.688-3.222
		c-0.42-0.531-0.836-1.07-1.239-1.626l-0.113-0.148l-0.82-1.152c-0.894-1.268-1.736-2.572-2.543-3.905
		c-0.316-0.522-0.623-1.043-0.926-1.574l-0.149-0.269c-0.18-0.31-0.355-0.616-0.519-0.933c-1.12-2.046-2.137-4.163-3.044-6.335
		c-0.168-0.41-0.336-0.813-0.497-1.224c-0.116-0.322-0.248-0.639-0.358-0.955l-0.113-0.283c-0.497-1.33-0.955-2.676-1.359-4.042
		c-0.216-0.691-0.416-1.391-0.6-2.091l-0.058-0.201c-0.116-0.442-0.229-0.881-0.342-1.323c-0.346-1.407-0.646-2.83-0.897-4.27
		c-0.12-0.658-0.226-1.313-0.317-1.978l-0.051-0.316c-0.055-0.391-0.11-0.778-0.162-1.168c-0.242-1.95-0.403-3.928-0.484-5.926
		c-0.026-0.652-0.042-1.304-0.048-1.962v-0.2l-0.007-0.581l0.007-0.597c0.013-1.979,0.109-3.947,0.297-5.884
		c0.048-0.597,0.113-1.191,0.187-1.788l0.074-0.564l0.107-0.801c0.229-1.614,0.506-3.214,0.842-4.789
		c0.119-0.542,0.236-1.081,0.368-1.614l0.129-0.523l0.21-0.839c0.51-1.959,1.1-3.879,1.775-5.764l0.174-0.491
		c0.161-0.435,0.329-0.868,0.497-1.297l0.113-0.281c0.674-1.736,1.427-3.437,2.246-5.099l0.342-0.684l0.291-0.571
		c0.255-0.491,0.51-0.975,0.774-1.459c0.846-1.549,1.753-3.066,2.715-4.535c0.29-0.448,0.587-0.894,0.894-1.336l0.351-0.51
		l0.443-0.632c0.942-1.314,1.923-2.601,2.959-3.841l0.119-0.142l0.123-0.145l0.068-0.081l0.255-0.309h0.006
		c0.304-0.365,0.62-0.727,0.936-1.085c0.275-0.31,0.555-0.623,0.833-0.926l0.013-0.013c0.284-0.316,0.59-0.646,0.887-0.955
		l0.465-0.478c0.901-0.929,1.83-1.83,2.776-2.704l0.022-0.026c0.336-0.31,0.678-0.613,1.02-0.92l0.348-0.304l0.317-0.274
		l0.384-0.326c1.31-1.12,2.663-2.185,4.057-3.205l0.255-0.184c0.397-0.293,0.8-0.577,1.21-0.858l0.168-0.11
		c1.968-1.355,4.011-2.607,6.119-3.75c0.387-0.203,0.771-0.416,1.162-0.613l0.832-0.423l0.465-0.235h0.006
		c2.066-1.024,4.196-1.943,6.381-2.75l0.849-0.31c0.442-0.161,0.887-0.31,1.336-0.465l0.352-0.119
		c2.156-0.7,4.344-1.304,6.593-1.801l0.688-0.149c0.445-0.093,0.9-0.188,1.365-0.277h0.006l0.459-0.087h0.006
		c1.665-0.294,3.347-0.536,5.054-0.713c0.681-0.078,1.372-0.139,2.059-0.188l0.249-0.019c0.39-0.032,0.771-0.055,1.155-0.074
		c1.265-0.068,2.543-0.107,3.828-0.107c0.542,0,1.081,0.007,1.62,0.02h0.006c0.552,0.013,1.094,0.032,1.64,0.055l0.619,0.032
		l0.752,0.048c2.141,0.145,4.244,0.381,6.323,0.72c0.293,0.045,0.584,0.093,0.878,0.145c0.451,0.074,0.903,0.161,1.358,0.249
		l0.028,0.006c1.728,0.332,3.435,0.729,5.109,1.204l0.626,0.171c0.455,0.126,0.901,0.255,1.349,0.4l0.117,0.036
		c2.097,0.645,4.153,1.397,6.151,2.233c0.639,0.268,1.277,0.549,1.903,0.833l0.113,0.048c0.384,0.181,0.769,0.362,1.149,0.542
		c1.378,0.659,2.724,1.359,4.044,2.111c0.348,0.19,0.697,0.39,1.039,0.587c0.315,0.187,0.633,0.375,0.942,0.572l0.322,0.193
		c2.017,1.246,3.979,2.595,5.845,4.034l0.343,0.262c0.384,0.297,0.758,0.594,1.136,0.897l0.273,0.232
		c1.872,1.533,3.66,3.163,5.374,4.883l0.311,0.323l0.703,0.726c0.378,0.404,0.756,0.807,1.124,1.217
		c1.139,1.259,2.238,2.562,3.281,3.912l0.143,0.184c0.261,0.335,0.522,0.671,0.777,1.013c0.241,0.329,0.484,0.658,0.72,0.984
		c1.358,1.901,2.63,3.87,3.792,5.903c0.242,0.423,0.478,0.846,0.714,1.268c0.18,0.326,0.358,0.656,0.526,0.991
		c0.726,1.372,1.396,2.776,2.022,4.196c0.2,0.448,0.392,0.9,0.584,1.349c0.162,0.384,0.317,0.768,0.465,1.158
		c0.362,0.894,0.697,1.808,1.015,2.718c0.408,1.194,0.793,2.404,1.139,3.621c0.132,0.452,0.255,0.91,0.381,1.372l0.012,0.055
		c0.218,0.819,0.414,1.646,0.602,2.475c0.348,1.539,0.632,3.105,0.868,4.68l0.031,0.193c0.068,0.452,0.137,0.917,0.2,1.385
		c0.042,0.332,0.078,0.674,0.117,1.01c0.125,1.123,0.222,2.253,0.296,3.395c0.033,0.517,0.065,1.03,0.075,1.546
		c0.032,0.713,0.051,1.433,0.058,2.153l0.006,0.684C159.279,90.58,159.266,91.241,159.248,91.906"/>
	<rect x="56.633" y="196.721" clip-path="url(#SVGID_2_)" fill="#8C6E47" width="1.648" height="21.455"/>
	<path clip-path="url(#SVGID_2_)" fill="#8C6E47" d="M4.834,218.089v-21.351h6.181c0.885,0,1.705,0.086,2.458,0.256
		c0.754,0.172,1.472,0.449,2.156,0.83c0.683,0.383,1.221,0.935,1.613,1.657c0.393,0.726,0.589,1.59,0.589,2.595
		c0,1.206-0.368,2.227-1.101,3.06c-0.734,0.835-1.684,1.383-2.85,1.646v0.06c1.388,0.141,2.563,0.683,3.528,1.628
		c0.966,0.945,1.449,2.201,1.449,3.771c0,1.869-0.71,3.312-2.127,4.328c-1.418,1.015-3.252,1.521-5.503,1.521H4.834z M6.552,198.216
		v7.992h4.584c1.347,0,2.508-0.328,3.482-0.981c0.976-0.652,1.464-1.663,1.464-3.029s-0.503-2.372-1.508-3.017
		c-1.005-0.642-2.302-0.965-3.89-0.965H6.552z M6.552,207.656v8.956h4.494c1.789,0,3.246-0.362,4.373-1.085
		c1.125-0.725,1.689-1.841,1.689-3.348c0-1.509-0.524-2.639-1.569-3.393c-1.046-0.755-2.422-1.131-4.132-1.131H6.552z"/>
	<rect x="24.796" y="196.739" clip-path="url(#SVGID_2_)" fill="#8C6E47" width="1.72" height="21.35"/>
	<polygon clip-path="url(#SVGID_2_)" fill="#8C6E47" points="35.562,196.739 48.861,215.617 48.922,215.617 48.922,196.739 
		50.64,196.739 50.64,218.088 48.468,218.088 35.17,199.09 35.11,199.09 35.11,218.088 33.39,218.088 33.39,196.739 	"/>
	<path clip-path="url(#SVGID_2_)" fill="#8C6E47" d="M61.282,206.45l10.804-9.715h-2.478c-3.502,3.271-7.004,6.542-10.505,9.812
		c3.68,3.849,7.361,7.696,11.042,11.545h2.504L61.282,206.45z"/>
	<polygon clip-path="url(#SVGID_2_)" fill="#8C6E47" points="76.906,218.089 76.906,196.74 78.625,196.74 78.625,206.208 
		91.081,206.208 91.081,196.74 92.798,196.74 92.798,218.089 91.081,218.089 91.081,207.806 78.625,207.806 78.625,218.089 	"/>
	<path clip-path="url(#SVGID_2_)" fill="#8C6E47" d="M121.475,218.089v-21.351h6.757c1.467,0,2.868,0.222,4.206,0.663
		c1.337,0.443,2.548,1.091,3.634,1.944c1.085,0.856,1.95,1.981,2.594,3.378c0.642,1.398,0.964,2.96,0.964,4.69
		c0,1.729-0.322,3.292-0.964,4.688c-0.644,1.397-1.509,2.524-2.594,3.379c-1.086,0.854-2.297,1.503-3.634,1.944
		c-1.338,0.441-2.739,0.663-4.206,0.663H121.475z M123.196,198.277v18.274h4.582c3.117,0,5.568-0.854,7.358-2.562
		c1.789-1.708,2.685-3.9,2.685-6.574c0-2.673-0.896-4.865-2.685-6.575c-1.79-1.708-4.241-2.562-7.358-2.562H123.196z"/>
	<rect x="145.419" y="196.739" clip-path="url(#SVGID_2_)" fill="#8C6E47" width="1.72" height="21.35"/>
	<polygon clip-path="url(#SVGID_2_)" fill="#8C6E47" points="154.014,218.089 154.014,196.74 156.668,196.74 164.54,215.225 
		172.349,196.74 175.002,196.74 175.002,218.089 173.285,218.089 173.285,198.939 173.224,198.939 164.992,218.089 164.026,218.089 
		155.794,198.939 155.735,198.939 155.735,218.089 	"/>
	<path clip-path="url(#SVGID_2_)" fill="#8C6E47" d="M117.292,218.196h-1.889c-2.992-6.52-5.985-13.038-8.978-19.559
		c0.272-0.595,0.544-1.19,0.817-1.786L117.292,218.196z"/>
	<path clip-path="url(#SVGID_2_)" fill="#8C6E47" d="M97.129,218.196h1.889c3.007-6.532,6.014-13.064,9.021-19.597
		c-0.276-0.608-0.552-1.217-0.828-1.826C103.85,203.915,100.49,211.054,97.129,218.196"/>
</g>
</svg>
