<svg width="54" height="96" viewBox="0 0 54 96" fill="none" xmlns="http://www.w3.org/2000/svg">
<path d="M5.422 25.078C5.422 34.073 11.441 41.68 19.664 44.094L53.222 14.876V21.46L26.307 44.888L24.86 46.15L23.253 47.544L25.741 49.854L27.094 51.107L53.222 75.337V82.108L20.423 51.697C11.815 53.85 5.422 61.654 5.422 70.92C5.422 81.841 14.31 90.73 25.231 90.73H53.222V95.697H25.231C11.573 95.697 0.458008 84.579 0.458008 70.921C0.458008 60.586 6.81301 51.711 15.824 48.001C16.166 48.136 16.514 48.275 16.86 48.398L16.253 47.833L15.825 48C6.814 44.288 0.459007 35.413 0.459007 25.079C0.459007 11.418 11.574 0.302979 25.232 0.302979H53.223V5.26998H25.231C14.311 5.26998 5.422 14.154 5.422 25.078Z" fill="black"/>
</svg>
