<?xml version="1.0" encoding="utf-8"?>
<!-- Generator: Adobe Illustrator 16.0.0, SVG Export Plug-In . SVG Version: 6.00 Build 0)  -->
<!DOCTYPE svg PUBLIC "-//W3C//DTD SVG 1.0//EN" "http://www.w3.org/TR/2001/REC-SVG-20010904/DTD/svg10.dtd">
<svg version="1.0" id="Layer_1" xmlns="http://www.w3.org/2000/svg" xmlns:xlink="http://www.w3.org/1999/xlink" x="0px" y="0px"
	 width="180px" height="180px" viewBox="0 0 180 180" enable-background="new 0 0 180 180" xml:space="preserve">
<polygon points="99.11,88.143 96.938,90.034 98.9,91.854 100.252,93.106 112.223,104.212 112.223,110.977 92.946,93.106 
	91.6,91.854 89.508,89.918 91.551,88.143 92.991,86.891 112.223,70.151 112.223,76.728 100.549,86.891 "/>
<g>
	<path d="M75.252,89.831l-0.429,0.168c0.342,0.136,0.69,0.274,1.036,0.397L75.252,89.831z"/>
	<path d="M75.252,89.831l-0.429,0.168c0.342,0.136,0.69,0.274,1.036,0.397L75.252,89.831z"/>
	<path d="M64.422,67.078c0,8.995,6.019,16.602,14.242,19.016l33.558-29.218v6.584L85.307,86.888L83.86,88.15l-1.607,1.394
		l2.488,2.31l1.353,1.253l26.128,24.23v6.771L79.423,93.697c-8.608,2.153-15.001,9.957-15.001,19.223
		c0,10.921,8.888,19.81,19.809,19.81h27.991v4.967H84.231c-13.658,0-24.773-11.118-24.773-24.776c0-10.335,6.355-19.21,15.366-22.92
		c0.342,0.135,0.69,0.274,1.036,0.397l-0.607-0.565L74.825,90c-9.011-3.712-15.366-12.587-15.366-22.921
		c0-13.661,11.115-24.776,24.773-24.776h27.991v4.967H84.231C73.311,47.27,64.422,56.154,64.422,67.078"/>
	<path d="M30.91,125.63l-0.074,0.854l-1.982,21.469l-0.081,0.819c-0.384-0.396-0.761-0.8-1.129-1.21l0.077-0.832l2.027-22.043
		l0.087-0.901l0.149,0.269C30.29,124.588,30.594,125.106,30.91,125.63"/>
	<path d="M26.273,116.519l-0.168,0.895l-4.157,22.274l-0.148,0.83c-0.349-0.459-0.684-0.917-1.014-1.381l0.162-0.859l4.289-22.976
		l0.181-0.961c0.109,0.315,0.242,0.632,0.358,0.955C25.937,115.706,26.105,116.108,26.273,116.519"/>
	<path d="M23.946,110.015l-0.281,0.825c-2.753,8.089-5.441,16.051-6.955,20.749l-0.255,0.813c-0.281-0.487-0.558-0.974-0.826-1.465
		l0.261-0.813c1.788-5.513,4.687-14.091,7.162-21.34l0.29-0.861C23.53,108.623,23.73,109.327,23.946,110.015"/>
	<path d="M22.047,102.132l-0.391,0.688c-3.866,6.849-7.684,13.662-10.085,18.066l-0.384,0.71c-0.2-0.497-0.397-0.993-0.584-1.497
		l0.39-0.726c2.54-4.667,6.335-11.445,10.328-18.5l0.41-0.719C21.824,100.815,21.927,101.474,22.047,102.132"/>
	<path d="M21.035,92.741l-0.478,0.721c-4.841,7.261-9.575,14.399-12.028,18.186l-0.452,0.7c-0.152-0.532-0.287-1.068-0.423-1.606
		l0.459-0.714c2.93-4.512,7.987-12.135,12.37-18.699l0.504-0.746v0.197C20.993,91.438,21.009,92.09,21.035,92.741"/>
	<path d="M21.544,81.167l-0.074,0.565c-0.074,0.597-0.136,1.191-0.188,1.788l-0.577,0.733L6.737,102.139l-0.168-0.13l-0.71-0.555
		l-0.103-0.077l0.08-0.107l0.533-0.684l14.568-18.644L21.544,81.167z"/>
	<path d="M22.99,73.44l-0.129,0.52c-0.133,0.535-0.249,1.074-0.368,1.613l-0.633,0.585L5.717,90.955l-0.613,0.565
		C5.097,91.01,5.091,90.506,5.091,90v-0.149l0.626-0.578l16.595-15.22L22.99,73.44z"/>
	<path d="M25.758,64.77l-0.113,0.278c-0.168,0.429-0.332,0.864-0.494,1.297l-0.174,0.491l-0.71,0.497L6.313,79.899l-0.681,0.478
		c0.061-0.552,0.129-1.104,0.203-1.656l0.694-0.484l18.477-12.942L25.758,64.77z"/>
	<path d="M29.414,56.956c-0.268,0.484-0.52,0.968-0.775,1.459l-0.293,0.571l-0.788,0.445L8.007,70.411l-0.733,0.41
		c0.126-0.552,0.262-1.097,0.4-1.646l0.749-0.42l20.165-11.334L29.414,56.956z"/>
	<path d="M33.374,50.575l-0.355,0.51c-0.304,0.439-0.6,0.888-0.894,1.333l-0.81,0.336l-20.507,8.358l-0.771,0.314
		c0.187-0.53,0.381-1.053,0.584-1.572l0.787-0.323l21.111-8.607L33.374,50.575z"/>
	<path d="M13.042,54.138l0.329-0.1l0.478-0.142l21.126-6.448l0.094-0.032l0.781-0.243c0.403-0.484,0.813-0.968,1.236-1.439
		l0.274-0.316l-0.013,0.006l-0.887,0.268l-0.02,0.006l-21.852,6.665l-0.449,0.136l-0.358,0.113L13.042,54.138z"/>
	<path d="M44.645,38.014l-0.349,0.304c-0.342,0.303-0.681,0.609-1.016,0.919l-0.026,0.026h-0.746l-19.761-0.026h-0.774
		c0.31-0.416,0.626-0.826,0.942-1.236h0.784l20.181,0.013H44.645z"/>
	<path d="M40.48,41.967l-0.465,0.478c-0.3,0.31-0.603,0.639-0.887,0.955l-0.772,0.094l-20.268,2.562l-0.174,0.026l-0.61,0.074
		c0.281-0.452,0.558-0.907,0.839-1.352l0.762-0.094l0.032-0.006l20.742-2.637L40.48,41.967z"/>
	<path d="M51.037,33.055l-0.168,0.113c-0.41,0.278-0.813,0.565-1.21,0.855l-0.255,0.188l-0.794-0.038L27.855,33.11l-0.794-0.042
		c0.355-0.397,0.719-0.794,1.094-1.184l0.807,0.042l21.242,1.087L51.037,33.055z"/>
	<path d="M59.149,28.27l-0.833,0.423c-0.39,0.197-0.774,0.41-1.158,0.613l-0.888-0.093l-22.085-2.327l-0.829-0.088
		c0.416-0.371,0.836-0.745,1.258-1.11l0.853,0.094l22.746,2.388L59.149,28.27z"/>
	<path d="M68.539,24.391l-0.355,0.116c-0.446,0.158-0.894,0.307-1.333,0.468l-0.849,0.31l-1.052-0.148l-24.215-3.496l-0.881-0.122
		c0.484-0.355,0.968-0.704,1.459-1.049l0.897,0.129l25.212,3.631L68.539,24.391z"/>
	<path d="M77.65,22.075l-0.458,0.087h-0.007c-0.465,0.094-0.92,0.187-1.365,0.278l-0.691,0.152l-0.961-0.307L51.311,15.13
		l-0.845-0.268c0.523-0.271,1.042-0.539,1.572-0.807l0.855,0.274h0.006l23.715,7.43h0.013h0.006L77.65,22.075z"/>
	<path d="M85.017,21.157l-0.249,0.02c-0.687,0.048-1.378,0.109-2.059,0.183l-0.826-0.419L61.732,10.588l-0.759-0.391
		c0.533-0.194,1.075-0.384,1.614-0.565l0.771,0.391l20.791,10.692L85.017,21.157z"/>
	<path d="M93.886,21.083l-0.62-0.032c-0.549-0.023-1.087-0.042-1.639-0.055h-0.007l-0.727-0.52L72.679,7.496l-0.678-0.484
		c0.552-0.123,1.101-0.236,1.653-0.346l0.694,0.497h0.006l18.764,13.375L93.886,21.083z"/>
	<path d="M103.227,22.25l-0.032-0.006c-0.452-0.088-0.903-0.175-1.358-0.249c-0.291-0.048-0.584-0.1-0.875-0.142l-0.682-0.619
		L83.614,5.952l-0.626-0.578c0.565-0.042,1.13-0.087,1.701-0.116l0.639,0.581l17.192,15.759L103.227,22.25z"/>
	<path d="M110.426,24.062l-0.116-0.039c-0.448-0.142-0.894-0.271-1.349-0.397l-0.626-0.171l-0.552-0.677L93.987,5.802l-0.53-0.646
		c0.559,0.026,1.12,0.052,1.672,0.087l0.533,0.659l14.193,17.453L110.426,24.062z"/>
	<path d="M118.593,27.177l-0.112-0.048c-0.626-0.287-1.266-0.565-1.904-0.833l-0.471-0.745l-11.651-18.6l-0.438-0.71
		c0.552,0.094,1.097,0.194,1.648,0.294l0.449,0.72l11.996,19.154L118.593,27.177z"/>
	<path d="M125.769,30.988c-0.311-0.2-0.626-0.384-0.943-0.571c-0.342-0.197-0.69-0.397-1.035-0.591l-0.41-0.807L113.156,8.942
		l-0.384-0.749c0.552,0.149,1.094,0.31,1.64,0.471l0.39,0.769l10.538,20.706L125.769,30.988z"/>
	<path d="M133.688,36.605l-0.274-0.229c-0.378-0.303-0.749-0.604-1.136-0.9l-0.339-0.262l-0.281-0.849L124.78,13.22l-0.258-0.794
		c0.513,0.229,1.022,0.464,1.533,0.707l0.265,0.806l7.084,21.779L133.688,36.605z"/>
	<path d="M141.198,43.755c-0.365-0.41-0.746-0.813-1.123-1.217l-0.7-0.726l-0.28-1.01l-6.568-23.56l-0.242-0.858
		c0.516,0.3,1.033,0.603,1.539,0.907l0.249,0.881l6.829,24.515L141.198,43.755z"/>
	<path d="M146.12,49.849c-0.236-0.329-0.479-0.658-0.721-0.987c-0.255-0.343-0.516-0.675-0.773-1.011l-0.12-0.974l-2.872-23.46
		l-0.107-0.871c0.465,0.361,0.923,0.719,1.386,1.087l0.103,0.881l2.982,24.312L146.12,49.849z"/>
	<path d="M151.153,31.149v26.862c-0.168-0.336-0.35-0.665-0.526-0.995c-0.239-0.419-0.475-0.842-0.717-1.265V29.885
		C150.333,30.305,150.75,30.727,151.153,31.149"/>
	<path d="M157.732,38.845l-0.081,0.92l-2.308,26.458l-0.106,1.21c-0.316-0.913-0.652-1.827-1.01-2.721l0.097-1.123l2.211-25.289
		l0.074-0.901C156.993,37.877,157.367,38.361,157.732,38.845"/>
	<path d="M164.26,48.863l-0.223,0.862l-6.387,24.182l-0.28,1.049c-0.185-0.832-0.385-1.659-0.602-2.478l-0.013-0.055l0.255-0.988
		l6.152-23.259l0.222-0.852C163.682,47.833,163.979,48.347,164.26,48.863"/>
	<path d="M168.177,56.863l-0.316,0.846l-8.889,23.501l-0.385,1.014c-0.037-0.336-0.073-0.678-0.118-1.014
		c-0.062-0.464-0.129-0.929-0.197-1.384l-0.032-0.191l0.368-0.955l8.546-22.617l0.316-0.826
		C167.711,55.774,167.948,56.317,168.177,56.863"/>
	<path d="M171.969,67.798l-0.429,0.801l-12.017,22.397l-0.532,0.994c0.02-0.664,0.029-1.326,0.029-1.991l-0.003-0.684l0.487-0.917
		l11.557-21.536l0.416-0.784C171.653,66.649,171.814,67.227,171.969,67.798"/>
	<path d="M174.148,78.597l-0.533,0.671l-14.5,18.333l-0.601,0.765l0.101-0.833c0.048-0.452,0.09-0.917,0.135-1.384l0.007-0.098
		l0.571-0.72l14.045-17.757l0.526-0.671C173.993,77.467,174.074,78.032,174.148,78.597"/>
	<path d="M174.805,85.785l-0.591,0.752c-1.791,2.272-4.505,5.529-8.552,10.257c-2.834,3.313-5.723,6.622-7.994,9.217l-0.728,0.826
		c0.14-0.539,0.263-1.075,0.389-1.614c0.074-0.309,0.142-0.613,0.203-0.929l0.678-0.778c6.032-6.913,12.587-14.591,15.914-18.867
		l0.567-0.739C174.738,84.533,174.773,85.159,174.805,85.785"/>
	<path d="M174.625,96.999c-0.048,0.565-0.1,1.13-0.155,1.688l-0.684,0.516l-18.222,13.946l-0.742,0.571l0.142-0.385
		c0.161-0.455,0.323-0.913,0.478-1.378l0.116-0.374l0.714-0.546l17.683-13.528L174.625,96.999z"/>
	<path d="M173.334,106.321c-0.113,0.591-0.235,1.172-0.365,1.756l-0.744,0.517l-21.078,14.484l-0.943,0.652
		c0.439-0.788,0.869-1.582,1.278-2.389l0.875-0.604l20.245-13.914L173.334,106.321z"/>
	<path d="M170.703,116.419c-0.187,0.559-0.371,1.117-0.57,1.676l-0.802,0.403L147,129.765l-0.954,0.483
		c0.258-0.367,0.52-0.731,0.773-1.106v-0.006c0.236-0.336,0.472-0.676,0.694-1.023l0.927-0.465l21.474-10.831L170.703,116.419z"/>
	<path d="M167.215,125.307c-0.249,0.539-0.497,1.081-0.76,1.614l-0.854,0.323l-23.627,8.888l-1.023,0.384
		c0.364-0.396,0.727-0.801,1.078-1.211v-0.006l0.658-0.762l0.975-0.368l22.728-8.546L167.215,125.307z"/>
	<path d="M161.288,136.088c-0.329,0.503-0.665,1.007-1.007,1.501l-0.891,0.206v0.007l-25.112,5.77l-0.006,0.007l-1.124,0.255
		c0.714-0.564,1.408-1.155,2.098-1.756l1.043-0.241l24.118-5.549L161.288,136.088z"/>
	<path d="M155.584,143.87c-0.371,0.458-0.76,0.913-1.143,1.365l-0.906,0.087v0.007l-24.98,2.501l-0.007,0.006l-1.084,0.107
		c0.729-0.474,1.459-0.962,2.165-1.465l1.023-0.101l0.006-0.007l24.037-2.407L155.584,143.87z"/>
	<path d="M148.248,151.722c-0.451,0.436-0.906,0.849-1.364,1.265h-0.008c-0.297,0-0.605,0.007-0.936,0.013
		c-1.155,0.014-2.494,0.021-4.06,0.021c-2.623,0-5.877-0.026-9.905-0.068c-4.282-0.052-8.571-0.126-12.079-0.193
		c-0.397-0.007-0.775-0.014-1.146-0.02c0.829-0.378,1.656-0.774,2.47-1.19c0.354,0.006,0.707,0.013,1.062,0.019
		c9.333,0.168,19.209,0.275,25.047,0.175C147.644,151.734,147.957,151.729,148.248,151.722"/>
	<path d="M141.148,157.735c-0.491,0.371-0.981,0.739-1.485,1.097l-0.929-0.096l-26.937-2.708l-1.271-0.123
		c0.962-0.3,1.917-0.623,2.866-0.962l1.136,0.11l25.706,2.588L141.148,157.735z"/>
	<path d="M132.297,163.601c-0.516,0.305-1.029,0.598-1.552,0.881l-0.895-0.222l-24.905-6.349l-1.11-0.287
		c0.9-0.174,1.788-0.378,2.676-0.598h0.007l1.022,0.262l23.896,6.097L132.297,163.601z"/>
	<path d="M123.478,168.025l-1.693,0.707l-0.882-0.31l-25.415-9.111l-1.185-0.429c0.997-0.055,1.991-0.142,2.985-0.249l1.084,0.394
		l24.251,8.695L123.478,168.025z"/>
	<path d="M112.208,171.445l-0.316,0.604l-0.788,0.209l-0.819-0.436l-23.324-12.361l-1.062-0.564c0.943,0.061,1.895,0.097,2.85,0.103
		l0.988,0.53h0.006l22.311,11.834L112.208,171.445z"/>
	<path d="M104.705,173.637c-0.626,0.106-1.26,0.21-1.889,0.304l-0.83-0.504l-24.882-15.11h-0.007l-1.246-0.765
		c1.123,0.234,2.266,0.441,3.405,0.623h0.007l1.12,0.68h0.003l23.505,14.275L104.705,173.637z"/>
	<path d="M92.161,174.884c-0.545,0.014-1.088,0.021-1.633,0.026l-0.584-0.623c-3.767-3.928-11.68-11.394-17.854-17.099h-0.006
		l-0.814-0.748c0.471,0.129,0.943,0.258,1.42,0.384c0.375,0.1,0.759,0.192,1.136,0.284h0.007l0.745,0.696
		c2.124,1.973,4.909,4.567,7.652,7.182c5.051,4.802,7.865,7.606,9.386,9.291h0.006L92.161,174.884z"/>
	<path d="M81.833,174.518c-0.597-0.055-1.191-0.116-1.788-0.187l-0.594-0.7L62.73,153.949l-0.745-0.875
		c0.839,0.372,1.681,0.733,2.54,1.069h0.006l0.694,0.823h0.006l16.024,18.867L81.833,174.518z"/>
	<path d="M71.003,172.768c-0.565-0.129-1.13-0.269-1.688-0.403l-0.452-0.759l-12.37-20.697l-0.53-0.881
		c0.317,0.188,0.636,0.365,0.959,0.539h0.003c0.394,0.213,0.778,0.416,1.181,0.626l0.491,0.826h0.006l11.958,20.01L71.003,172.768z"
		/>
	<path d="M61.57,170.012c-0.571-0.2-1.136-0.41-1.701-0.626h-0.006l-0.41-0.833h-0.007l-11.673-23.358l-0.007-0.008l-0.438-0.881
		l0.074-0.039c0.681,0.539,1.378,1.069,2.085,1.579l0.484,0.972h0.006l11.19,22.395h0.006L61.57,170.012z"/>
	<path d="M51.391,165.611c-0.516-0.261-1.023-0.526-1.533-0.8l-0.248-0.853h-0.007L42.79,140.99l-0.274-0.917l0.026-0.006l1.742,1.6
		l0.275,0.917l6.59,22.201L51.391,165.611z"/>
	<path d="M43.465,160.994c-0.471-0.311-0.936-0.62-1.404-0.942l-0.129-0.846l-3.476-22.611l-0.142-0.91l1.514,1.669l0.135,0.874
		l3.373,21.927L43.465,160.994z"/>
	<path d="M35.626,132.463v22.705c-0.416-0.35-0.833-0.704-1.243-1.057v-23.274C34.788,131.388,35.204,131.931,35.626,132.463"/>
	<path d="M174.804,85.783c-0.029-0.626-0.068-1.252-0.11-1.872c-0.126-1.788-0.31-3.556-0.545-5.315
		c-0.075-0.565-0.154-1.13-0.249-1.695c-0.478-3.088-1.123-6.125-1.93-9.104c-0.155-0.571-0.316-1.146-0.49-1.717
		c-0.927-3.153-2.031-6.232-3.302-9.217c-0.233-0.546-0.468-1.088-0.71-1.627c-0.979-2.172-2.046-4.302-3.208-6.374
		c-0.278-0.516-0.578-1.029-0.875-1.539c-1.713-2.941-3.605-5.771-5.654-8.479c-0.365-0.484-0.739-0.968-1.123-1.446
		c-1.714-2.172-3.537-4.256-5.454-6.248c-0.403-0.422-0.819-0.845-1.242-1.268c-2.215-2.208-4.555-4.292-7-6.248
		c-0.458-0.368-0.921-0.726-1.386-1.088c-2.462-1.885-5.034-3.643-7.703-5.257c-0.507-0.303-1.022-0.607-1.535-0.904
		c-2.024-1.168-4.106-2.253-6.233-3.253c-0.509-0.242-1.019-0.478-1.533-0.707c-3.266-1.458-6.641-2.721-10.11-3.763
		c-0.546-0.161-1.085-0.323-1.64-0.471c-2.327-0.652-4.696-1.204-7.104-1.656c-0.556-0.1-1.101-0.2-1.652-0.294
		c-2.918-0.483-5.877-0.816-8.888-0.997c-0.553-0.038-1.111-0.061-1.669-0.087c-1.149-0.045-2.298-0.068-3.456-0.068
		c-1.788,0-3.557,0.055-5.313,0.168c-0.571,0.029-1.136,0.074-1.7,0.116c-3.167,0.262-6.278,0.698-9.337,1.291
		c-0.552,0.113-1.097,0.223-1.649,0.349h-0.007C68.788,7.7,65.648,8.581,62.588,9.63c-0.542,0.181-1.081,0.375-1.613,0.565
		c-3.066,1.12-6.052,2.411-8.94,3.863c-0.526,0.265-1.049,0.533-1.568,0.807c-3.18,1.675-6.233,3.547-9.157,5.603
		c-0.49,0.348-0.974,0.694-1.458,1.049c-1.798,1.323-3.55,2.711-5.238,4.169c-0.42,0.368-0.843,0.74-1.259,1.114
		c-1.814,1.617-3.544,3.311-5.202,5.083c-0.372,0.391-0.736,0.787-1.091,1.184c-1.44,1.595-2.824,3.241-4.148,4.935
		c-0.316,0.41-0.632,0.82-0.942,1.233c-0.484,0.652-0.962,1.304-1.427,1.969l-0.955,1.391c-0.49,0.726-0.974,1.465-1.449,2.207
		c-0.277,0.449-0.558,0.901-0.836,1.356v0.006c-1.081,1.791-2.104,3.631-3.059,5.509c-0.162,0.31-0.317,0.623-0.465,0.939
		l-0.3,0.594l-0.371,0.788l-0.068,0.145c-0.875,1.869-1.688,3.773-2.42,5.715c-0.207,0.52-0.398,1.043-0.585,1.569
		c-0.907,2.533-1.7,5.115-2.365,7.752C7.536,69.72,7.4,70.27,7.275,70.821c-0.601,2.588-1.078,5.225-1.44,7.901
		c-0.074,0.552-0.142,1.103-0.203,1.655c-0.355,3.111-0.536,6.271-0.542,9.473v0.148c0,0.51,0.006,1.014,0.013,1.52
		c0.061,3.295,0.303,6.555,0.732,9.75l0.026,0.187c0.426,3.153,1.03,6.252,1.791,9.285c0.139,0.539,0.275,1.075,0.423,1.607
		c0.72,2.637,1.565,5.219,2.527,7.752c0.187,0.504,0.384,1.001,0.584,1.495c1.298,3.218,2.779,6.332,4.444,9.343
		c0.265,0.491,0.546,0.978,0.823,1.465c1.343,2.313,2.789,4.561,4.335,6.733c0.329,0.464,0.661,0.926,1.01,1.384
		c1.82,2.45,3.766,4.802,5.848,7.045c0.365,0.407,0.742,0.811,1.129,1.211c1.788,1.859,3.654,3.64,5.61,5.335
		c0.409,0.354,0.826,0.71,1.242,1.055c2.066,1.727,4.215,3.359,6.435,4.887c0.465,0.322,0.93,0.633,1.404,0.941
		c2.072,1.359,4.202,2.631,6.39,3.818c0.51,0.271,1.02,0.539,1.533,0.801c2.744,1.407,5.568,2.669,8.472,3.773h0.007
		c0.564,0.216,1.129,0.429,1.7,0.626c2.534,0.906,5.116,1.688,7.746,2.352c0.559,0.136,1.123,0.275,1.688,0.404
		c2.963,0.678,5.977,1.204,9.043,1.564c0.597,0.068,1.191,0.129,1.788,0.185c2.688,0.261,5.413,0.394,8.169,0.394h0.525
		c0.545-0.007,1.087-0.013,1.634-0.025c3.61-0.095,7.168-0.41,10.655-0.942c0.627-0.094,1.26-0.2,1.885-0.307
		c2.163-0.379,4.297-0.843,6.4-1.379l0.788-0.21c3.388-0.899,6.69-2.01,9.896-3.313l1.693-0.707
		c2.488-1.068,4.909-2.253,7.269-3.544c0.52-0.287,1.035-0.577,1.549-0.881c2.547-1.459,5.003-3.054,7.368-4.768
		c0.504-0.36,0.993-0.726,1.484-1.1c1.979-1.494,3.89-3.076,5.729-4.748h0.007c0.458-0.416,0.91-0.829,1.365-1.265
		c2.178-2.05,4.243-4.222,6.192-6.487c0.384-0.452,0.769-0.903,1.144-1.365c1.662-2.017,3.233-4.115,4.695-6.28
		c0.343-0.496,0.678-0.998,1.007-1.501c1.904-2.937,3.631-5.997,5.171-9.169c0.261-0.531,0.51-1.071,0.758-1.613
		c1.078-2.344,2.053-4.754,2.914-7.21c0.201-0.559,0.388-1.116,0.571-1.676c0.895-2.727,1.652-5.505,2.266-8.342
		c0.133-0.584,0.255-1.169,0.368-1.756c0.49-2.508,0.875-5.054,1.136-7.636c0.055-0.559,0.104-1.123,0.155-1.688
		c0.184-2.307,0.284-4.641,0.284-7C174.911,88.584,174.875,87.181,174.804,85.783 M173.956,97.509
		c-0.049,0.57-0.107,1.136-0.168,1.693c-0.277,2.582-0.679,5.122-1.185,7.623c-0.12,0.594-0.249,1.186-0.381,1.77
		c-0.633,2.792-1.401,5.541-2.308,8.223c-0.188,0.564-0.385,1.124-0.584,1.682c-0.875,2.434-1.862,4.81-2.94,7.123
		c-0.262,0.548-0.523,1.087-0.787,1.62c-1.546,3.13-3.279,6.151-5.197,9.043c-0.329,0.51-0.671,1.013-1.016,1.51v0.008
		c-1.465,2.127-3.037,4.182-4.693,6.16c-0.381,0.458-0.765,0.913-1.161,1.358v0.007c-1.955,2.246-4.027,4.383-6.206,6.413
		c-0.458,0.423-0.924,0.842-1.392,1.258c-1.83,1.627-3.733,3.18-5.703,4.646c-0.497,0.371-1,0.729-1.5,1.09
		c-2.346,1.669-4.779,3.221-7.301,4.647c-0.519,0.301-1.048,0.591-1.581,0.879c-2.346,1.265-4.76,2.42-7.231,3.463
		c-0.572,0.241-1.144,0.471-1.718,0.699c-2.876,1.137-5.829,2.123-8.853,2.943c-0.587,0.155-1.178,0.311-1.77,0.459
		c-2.104,0.52-4.23,0.961-6.39,1.316c-0.636,0.109-1.268,0.21-1.907,0.297c-3.395,0.483-6.852,0.768-10.362,0.836h-0.008
		c-0.534,0.007-1.073,0.013-1.612,0.013h-0.059c-2.934,0-5.832-0.155-8.688-0.452c-0.606-0.061-1.21-0.132-1.804-0.206
		c-3.017-0.378-5.983-0.917-8.888-1.601c-0.571-0.136-1.136-0.278-1.701-0.423c-2.614-0.682-5.176-1.481-7.69-2.396h-0.007
		c-0.571-0.209-1.142-0.426-1.714-0.657h-0.006c-2.847-1.104-5.609-2.363-8.297-3.767c-0.52-0.274-1.03-0.546-1.54-0.827h-0.006
		c-2.147-1.178-4.238-2.442-6.268-3.805c-0.471-0.31-0.936-0.632-1.401-0.949c-2.178-1.519-4.282-3.14-6.306-4.853
		c-0.416-0.353-0.833-0.707-1.242-1.065c-1.918-1.694-3.767-3.47-5.529-5.332c-0.387-0.402-0.765-0.812-1.136-1.223
		c-2.049-2.24-3.973-4.593-5.774-7.046c-0.335-0.464-0.668-0.936-0.997-1.407c-1.517-2.156-2.93-4.389-4.241-6.69
		c-0.277-0.483-0.552-0.975-0.82-1.465c-1.62-2.973-3.059-6.058-4.318-9.236c-0.193-0.503-0.39-1.004-0.577-1.515
		c-0.943-2.52-1.763-5.095-2.463-7.726c-0.145-0.542-0.281-1.081-0.416-1.62c-0.639-2.627-1.162-5.299-1.546-8.021
		c-0.068-0.471-0.136-0.941-0.2-1.42c-0.391-3.159-0.613-6.374-0.649-9.634c-0.006-0.316-0.006-0.639-0.006-0.955l0.006-0.726
		c0.023-3.173,0.223-6.3,0.594-9.372c0.068-0.559,0.135-1.111,0.216-1.662c0.374-2.65,0.865-5.264,1.478-7.827
		c0.136-0.558,0.275-1.11,0.417-1.659c0.677-2.598,1.471-5.144,2.381-7.639c0.2-0.526,0.397-1.062,0.604-1.581
		c0.745-1.917,1.552-3.792,2.433-5.635h0.007c0.142-0.316,0.29-0.629,0.445-0.939l0.294-0.594c0.161-0.31,0.316-0.63,0.477-0.939
		c0.943-1.83,1.953-3.618,3.021-5.367c0.288-0.455,0.565-0.907,0.852-1.353c0.484-0.752,0.975-1.497,1.475-2.23
		c0.323-0.465,0.646-0.929,0.975-1.391c0.449-0.62,0.894-1.239,1.359-1.849c0.313-0.413,0.635-0.823,0.952-1.233
		c1.326-1.688,2.711-3.314,4.157-4.893c0.361-0.397,0.732-0.794,1.103-1.184c1.672-1.749,3.415-3.431,5.229-5.041
		c0.419-0.371,0.849-0.743,1.278-1.104c1.7-1.452,3.456-2.83,5.267-4.141c0.49-0.351,0.981-0.7,1.478-1.042
		c2.905-2.004,5.945-3.834,9.098-5.467c0.523-0.271,1.049-0.539,1.584-0.801H52.9c2.853-1.407,5.803-2.662,8.83-3.74
		c0.539-0.194,1.081-0.381,1.626-0.565c3.034-1.013,6.145-1.856,9.321-2.527c0.555-0.113,1.107-0.223,1.672-0.336h0.006
		c3.028-0.564,6.119-0.974,9.26-1.21c0.571-0.042,1.142-0.081,1.713-0.113c1.543-0.087,3.102-0.129,4.674-0.129
		c1.332,0,2.662,0.032,3.981,0.094c0.56,0.025,1.117,0.055,1.679,0.1c2.979,0.19,5.905,0.545,8.795,1.049
		c0.552,0.09,1.104,0.196,1.655,0.303c2.382,0.465,4.734,1.023,7.045,1.688c0.553,0.155,1.098,0.316,1.644,0.49
		c3.427,1.056,6.761,2.321,9.981,3.786c0.514,0.236,1.029,0.478,1.536,0.72c2.124,1.016,4.192,2.117,6.209,3.301
		c0.521,0.304,1.037,0.614,1.543,0.93c2.621,1.614,5.148,3.366,7.562,5.244c0.465,0.362,0.923,0.727,1.384,1.101
		c2.408,1.956,4.709,4.04,6.895,6.245c0.415,0.419,0.833,0.849,1.242,1.284c1.892,1.998,3.686,4.083,5.38,6.255
		c0.378,0.484,0.753,0.975,1.116,1.465c1.998,2.689,3.841,5.493,5.514,8.411c0.297,0.513,0.584,1.029,0.874,1.549
		c1.123,2.062,2.166,4.173,3.114,6.338c0.242,0.546,0.478,1.091,0.71,1.643c1.232,2.976,2.308,6.029,3.201,9.156
		c0.162,0.578,0.323,1.156,0.479,1.736c0.768,2.931,1.384,5.929,1.83,8.976c0.087,0.558,0.168,1.123,0.241,1.694
		c0.223,1.775,0.397,3.57,0.511,5.38c0.034,0.629,0.073,1.256,0.093,1.888c0.049,1.149,0.074,2.304,0.074,3.463
		C174.291,92.531,174.178,95.033,173.956,97.509"/>
	<path d="M159.507,88.399c-0.006-0.623-0.032-1.236-0.064-1.852c-0.022-0.514-0.055-1.024-0.091-1.53
		c-0.087-1.282-0.219-2.553-0.381-3.805l-0.067-0.549c-0.062-0.465-0.123-0.923-0.196-1.388l-0.101-0.597
		c-0.262-1.614-0.584-3.201-0.955-4.773c-0.168-0.7-0.343-1.394-0.529-2.085l-0.109-0.384c-0.094-0.342-0.188-0.691-0.294-1.023
		c-0.416-1.417-0.875-2.814-1.378-4.192c-0.323-0.888-0.662-1.762-1.018-2.631l-0.303-0.726c-0.193-0.445-0.388-0.887-0.584-1.333
		c-0.701-1.559-1.466-3.098-2.285-4.592l-0.342-0.623c-0.229-0.423-0.472-0.842-0.72-1.265l-0.178-0.304
		c-1.203-2.043-2.508-4.021-3.918-5.922l-0.532-0.713c-0.3-0.397-0.604-0.794-0.92-1.184l-0.035-0.052
		c-1.144-1.446-2.347-2.84-3.609-4.189c-0.264-0.297-0.545-0.588-0.823-0.881c-0.318-0.33-0.651-0.672-0.98-1.004l-0.032-0.032
		c-1.794-1.782-3.679-3.47-5.661-5.051l-0.073-0.065c-0.379-0.303-0.753-0.593-1.137-0.894l-0.533-0.397
		c-1.849-1.387-3.778-2.698-5.772-3.901l-0.546-0.323l-0.713-0.423c-0.41-0.236-0.826-0.471-1.249-0.694
		c-1.26-0.697-2.543-1.355-3.854-1.969c-0.417-0.2-0.83-0.39-1.253-0.577l-0.161-0.068c-0.665-0.297-1.33-0.584-2.004-0.855
		c-1.995-0.814-4.034-1.533-6.116-2.156l-0.136-0.042c-0.402-0.12-0.8-0.236-1.21-0.349l-0.862-0.229
		c-1.626-0.436-3.278-0.807-4.953-1.123l-0.311-0.055c-0.348-0.064-0.693-0.126-1.042-0.187c-0.396-0.068-0.794-0.129-1.197-0.181
		c-1.998-0.303-4.021-0.513-6.084-0.639c-0.352-0.019-0.713-0.035-1.078-0.055l-0.286-0.013c-0.646-0.025-1.291-0.045-1.937-0.048
		C90.597,20.47,90.3,20.47,90,20.47c-1.466,0-2.912,0.042-4.352,0.135c-0.465,0.026-0.929,0.061-1.391,0.1l-0.109,0.013
		c-0.759,0.061-1.514,0.136-2.266,0.223c-1.775,0.203-3.518,0.477-5.251,0.819h-0.007h-0.012c-0.452,0.091-0.901,0.178-1.353,0.284
		h-0.006c-0.365,0.081-0.726,0.162-1.085,0.243c-2.249,0.529-4.457,1.161-6.616,1.9l-0.132,0.042
		c-0.397,0.136-0.794,0.281-1.191,0.423c-0.429,0.155-0.858,0.317-1.278,0.484c-2.062,0.794-4.079,1.695-6.038,2.676L58.21,28.17
		l-0.581,0.303c-0.461,0.243-0.913,0.491-1.362,0.739c-2.091,1.162-4.115,2.428-6.061,3.799l-0.077,0.052
		c-0.404,0.284-0.8,0.568-1.191,0.862l-0.329,0.248c-1.365,0.997-2.686,2.052-3.964,3.163l-0.609,0.542l-0.155,0.135l-0.268,0.23
		c-0.371,0.335-0.743,0.671-1.104,1.02l-0.113,0.103c-0.929,0.878-1.836,1.775-2.717,2.701l-0.323,0.342
		c-0.303,0.323-0.607,0.646-0.894,0.968l-0.107,0.117c-0.332,0.374-0.668,0.745-0.99,1.123c-0.307,0.355-0.61,0.713-0.907,1.074
		l-0.559,0.678c-0.28,0.345-0.558,0.694-0.826,1.049h-0.006c-0.668,0.862-1.314,1.736-1.943,2.624l-0.607,0.881l-0.174,0.255
		c-0.355,0.523-0.694,1.042-1.03,1.575c-0.968,1.517-1.881,3.072-2.724,4.67c-0.213,0.397-0.416,0.794-0.622,1.191l-0.41,0.82
		l-0.217,0.438c-0.848,1.769-1.633,3.576-2.333,5.426l-0.006,0.019c-0.168,0.426-0.33,0.849-0.478,1.285l-0.255,0.732
		c-0.639,1.836-1.204,3.711-1.681,5.616c-0.094,0.368-0.188,0.732-0.275,1.103l-0.055,0.242c-0.142,0.617-0.28,1.237-0.397,1.863
		c-0.309,1.517-0.571,3.053-0.781,4.605c-0.058,0.391-0.106,0.788-0.145,1.181l-0.023,0.178c-0.08,0.71-0.148,1.417-0.206,2.13
		c-0.155,1.856-0.229,3.731-0.236,5.622V90c0,0.416,0.007,0.823,0.013,1.246v0.08c0.013,0.713,0.039,1.43,0.074,2.137
		c0.094,1.943,0.268,3.866,0.523,5.764l0.023,0.155c0.068,0.497,0.139,0.994,0.219,1.491c0.097,0.651,0.21,1.304,0.333,1.949
		c0.261,1.4,0.565,2.792,0.913,4.163c0.113,0.442,0.223,0.874,0.349,1.316l0.135,0.484c0.194,0.688,0.397,1.378,0.617,2.053
		c0.397,1.284,0.836,2.553,1.313,3.811l0.255,0.652l0.223,0.572c0.213,0.516,0.423,1.028,0.645,1.539
		c0.901,2.091,1.901,4.128,2.992,6.105c0.219,0.392,0.442,0.781,0.652,1.169l0.026,0.035c0.348,0.597,0.694,1.181,1.062,1.762
		c0.787,1.281,1.62,2.527,2.488,3.75c0.268,0.378,0.545,0.76,0.826,1.137l0.236,0.31c0.403,0.539,0.819,1.075,1.239,1.602
		c0.9,1.136,1.843,2.239,2.83,3.313l0.484,0.539c0.301,0.336,0.611,0.665,0.927,0.994l0.1,0.1c0.91,0.949,1.856,1.876,2.824,2.764
		c0.545,0.513,1.104,1.017,1.668,1.507l0.1,0.087c0.304,0.262,0.607,0.514,0.917,0.774c0.752,0.626,1.507,1.236,2.291,1.827
		l0.007,0.006c0.72,0.559,1.452,1.098,2.195,1.624h0.006l0.771,0.549c0.378,0.258,0.762,0.513,1.149,0.768
		c1.495,0.981,3.021,1.904,4.599,2.776l0.639,0.352c0.417,0.226,0.83,0.442,1.252,0.651l0.213,0.106h0.004
		c1.355,0.694,2.727,1.339,4.127,1.931c0.827,0.361,1.653,0.693,2.495,1.016h0.007l0.093,0.039c0.465,0.181,0.927,0.354,1.398,0.517
		c1.755,0.626,3.543,1.185,5.36,1.668h0.007c0.323,0.087,0.645,0.176,0.975,0.255c0.455,0.11,0.919,0.224,1.377,0.329l0.136,0.029
		c0.833,0.194,1.678,0.368,2.521,0.523h0.006c1.088,0.21,2.172,0.391,3.279,0.539h0.003c0.491,0.067,0.975,0.136,1.466,0.193
		c0.484,0.056,0.974,0.104,1.458,0.148c1.211,0.117,2.421,0.204,3.65,0.255c0.92,0.042,1.843,0.062,2.776,0.068h0.7
		c0.446-0.007,0.888-0.014,1.333-0.02c1.249-0.033,2.488-0.1,3.718-0.2c0.969-0.075,1.931-0.165,2.886-0.284
		c0.717-0.088,1.424-0.188,2.124-0.291c0.516-0.073,1.029-0.16,1.546-0.248c0.975-0.175,1.942-0.361,2.904-0.577
		c0.781-0.168,1.565-0.355,2.333-0.553l0.262-0.067l0.384-0.101c1.311-0.348,2.602-0.731,3.873-1.162
		c0.92-0.303,1.83-0.626,2.73-0.974c0.503-0.184,1-0.378,1.497-0.585l1.389-0.574c0.839-0.36,1.665-0.731,2.484-1.136
		c0.808-0.374,1.602-0.771,2.382-1.191c0.368-0.187,0.727-0.381,1.087-0.577c0.427-0.229,0.85-0.472,1.272-0.72
		c1.333-0.765,2.63-1.578,3.908-2.434l0.007-0.006c0.713-0.465,1.41-0.955,2.098-1.452l0.006-0.007l0.014-0.006
		c0.41-0.291,0.812-0.598,1.21-0.901c0.812-0.613,1.606-1.239,2.388-1.888l0.007-0.003c0.685-0.565,1.355-1.144,2.011-1.74
		l0.287-0.254h0.007c0.378-0.339,0.746-0.682,1.116-1.037c1.494-1.407,2.925-2.878,4.276-4.411c0.274-0.297,0.533-0.597,0.794-0.901
		c0.297-0.354,0.604-0.707,0.895-1.062l0.045-0.054c1.151-1.404,2.259-2.857,3.295-4.352l0.552-0.794
		c0.278-0.403,0.552-0.82,0.826-1.229l0.062-0.095c0.955-1.484,1.862-3.005,2.704-4.566c0.423-0.771,0.826-1.553,1.21-2.34
		l0.255-0.511c0.213-0.435,0.417-0.874,0.62-1.315c0.865-1.879,1.646-3.806,2.334-5.765l0.051-0.142
		c0.168-0.462,0.316-0.914,0.472-1.372l0.187-0.597c0.533-1.652,0.991-3.327,1.396-5.028c0.093-0.404,0.187-0.807,0.273-1.21
		c0.095-0.427,0.188-0.856,0.269-1.285l0.028-0.147c0.374-1.896,0.665-3.818,0.878-5.769l0.056-0.487
		c0.042-0.454,0.087-0.92,0.122-1.378l0.032-0.403c0.109-1.437,0.175-2.882,0.196-4.334c0.007-0.332,0.007-0.661,0.007-0.997
		C159.53,89.464,159.523,88.931,159.507,88.399 M158.991,91.991c-0.038,1.364-0.115,2.711-0.235,4.06l-0.006,0.097
		c-0.042,0.469-0.087,0.934-0.137,1.386l-0.1,0.832c-0.216,1.829-0.51,3.631-0.874,5.411l-0.107,0.518
		c-0.061,0.315-0.129,0.619-0.202,0.929c-0.126,0.539-0.249,1.075-0.388,1.614c-0.403,1.606-0.861,3.195-1.382,4.747l-0.119,0.375
		c-0.154,0.465-0.316,0.923-0.478,1.375l-0.143,0.387c-0.684,1.862-1.438,3.679-2.265,5.448c-0.217,0.448-0.43,0.894-0.646,1.329
		l-0.43,0.843c-0.41,0.807-0.836,1.6-1.277,2.391c-0.802,1.42-1.653,2.818-2.551,4.17l-0.139,0.21
		c-0.222,0.349-0.458,0.69-0.694,1.026v0.003c-0.254,0.375-0.516,0.739-0.773,1.107c-0.976,1.352-2.001,2.669-3.066,3.94
		l-0.294,0.349l-0.658,0.762v0.006c-0.352,0.41-0.713,0.814-1.078,1.211c-1.277,1.404-2.62,2.743-4.005,4.04
		c-0.378,0.35-0.755,0.694-1.136,1.03l-0.564,0.491c-0.688,0.603-1.382,1.189-2.099,1.755c-0.655,0.536-1.326,1.055-2.01,1.559
		c-0.41,0.303-0.82,0.604-1.228,0.895l-0.28,0.193c-0.706,0.5-1.434,0.99-2.165,1.462c-1.156,0.752-2.327,1.466-3.531,2.149
		c-0.429,0.249-0.865,0.484-1.297,0.72c-0.471,0.255-0.946,0.497-1.417,0.739c-0.813,0.416-1.636,0.812-2.469,1.191
		c-0.671,0.315-1.353,0.612-2.037,0.905c-0.464,0.197-0.936,0.386-1.407,0.572c-0.635,0.248-1.274,0.49-1.913,0.726
		c-0.949,0.34-1.905,0.662-2.866,0.963c-0.819,0.255-1.64,0.496-2.472,0.719c-0.478,0.129-0.962,0.255-1.446,0.378l-0.091,0.025
		h-0.006c-0.888,0.217-1.775,0.424-2.676,0.595h-0.006c-0.813,0.174-1.627,0.321-2.453,0.461c-0.52,0.087-1.036,0.168-1.562,0.242
		c-0.839,0.115-1.685,0.223-2.526,0.31c-0.994,0.107-1.985,0.191-2.985,0.249c-0.988,0.061-1.975,0.106-2.973,0.122h-0.007
		c-0.441,0.007-0.881,0.013-1.322,0.013h-0.042c-0.404,0-0.808-0.006-1.211-0.019c-0.955-0.007-1.907-0.042-2.849-0.104h-0.007
		c-1.023-0.058-2.043-0.145-3.053-0.248c-0.497-0.052-0.987-0.106-1.478-0.168c-0.7-0.087-1.401-0.187-2.098-0.297h-0.006
		c-1.139-0.18-2.282-0.387-3.405-0.623h-0.006c-0.591-0.122-1.182-0.255-1.763-0.39l-0.248-0.062h-0.007
		c-0.381-0.093-0.764-0.187-1.136-0.286c-0.477-0.122-0.949-0.253-1.423-0.385c-1.649-0.465-3.276-0.994-4.876-1.575
		c-0.472-0.174-0.937-0.348-1.404-0.542h-0.007l-0.452-0.177h-0.006c-0.855-0.336-1.701-0.696-2.537-1.068
		c-1.291-0.571-2.559-1.185-3.798-1.836l-0.081-0.046c-0.404-0.21-0.791-0.417-1.181-0.626h-0.007
		c-0.323-0.175-0.639-0.354-0.955-0.539c-1.42-0.807-2.818-1.672-4.176-2.575c-0.384-0.255-0.772-0.523-1.149-0.784
		c-0.391-0.266-0.775-0.545-1.156-0.826c-0.706-0.507-1.4-1.036-2.084-1.575c-0.653-0.51-1.292-1.036-1.924-1.572
		c-0.342-0.289-0.681-0.573-1.017-0.875l-0.174-0.153c-0.591-0.527-1.175-1.062-1.743-1.602c-0.894-0.843-1.765-1.714-2.614-2.607
		l-0.1-0.104c-0.271-0.3-0.552-0.604-0.826-0.9l-0.688-0.771c-0.935-1.042-1.83-2.114-2.688-3.221
		c-0.42-0.532-0.836-1.071-1.239-1.626l-0.113-0.149l-0.82-1.151c-0.894-1.269-1.736-2.572-2.543-3.905
		c-0.316-0.523-0.623-1.043-0.926-1.575l-0.149-0.268c-0.18-0.311-0.355-0.616-0.52-0.934c-1.119-2.046-2.136-4.163-3.043-6.335
		c-0.168-0.41-0.336-0.812-0.497-1.223c-0.116-0.323-0.248-0.639-0.358-0.955l-0.113-0.284c-0.497-1.33-0.955-2.676-1.359-4.041
		c-0.216-0.69-0.416-1.391-0.6-2.091l-0.058-0.201c-0.116-0.441-0.229-0.881-0.342-1.323c-0.346-1.406-0.646-2.829-0.897-4.27
		c-0.12-0.658-0.226-1.313-0.317-1.979l-0.051-0.315c-0.055-0.391-0.11-0.778-0.162-1.169c-0.242-1.949-0.403-3.927-0.484-5.925
		c-0.026-0.652-0.042-1.305-0.048-1.962v-0.2L20.979,90l0.007-0.597c0.013-1.979,0.109-3.947,0.297-5.884
		c0.048-0.597,0.113-1.191,0.187-1.788l0.074-0.564l0.107-0.801c0.229-1.614,0.506-3.214,0.842-4.789
		c0.119-0.542,0.236-1.081,0.368-1.614l0.129-0.523l0.21-0.839c0.51-1.959,1.1-3.879,1.775-5.764l0.174-0.491
		c0.161-0.435,0.329-0.868,0.497-1.297l0.113-0.281c0.674-1.736,1.427-3.437,2.246-5.099l0.342-0.684l0.291-0.571
		c0.255-0.491,0.51-0.975,0.774-1.459c0.846-1.549,1.753-3.066,2.715-4.535c0.29-0.448,0.587-0.894,0.894-1.336l0.351-0.51
		l0.443-0.632c0.942-1.314,1.923-2.601,2.959-3.841l0.119-0.142l0.123-0.145l0.068-0.081l0.255-0.309h0.006
		c0.304-0.365,0.62-0.727,0.936-1.085c0.275-0.31,0.555-0.623,0.833-0.926l0.013-0.013c0.284-0.316,0.59-0.646,0.887-0.955
		l0.465-0.478c0.9-0.929,1.83-1.83,2.776-2.704l0.022-0.026c0.336-0.31,0.678-0.613,1.02-0.92l0.348-0.304l0.317-0.274l0.384-0.326
		c1.31-1.12,2.663-2.185,4.057-3.205l0.255-0.184c0.397-0.293,0.8-0.577,1.21-0.858l0.168-0.11c1.968-1.355,4.011-2.607,6.119-3.75
		c0.387-0.203,0.771-0.416,1.162-0.613l0.832-0.423l0.465-0.235h0.006c2.066-1.024,4.196-1.943,6.381-2.75l0.849-0.31
		c0.442-0.161,0.887-0.31,1.336-0.465l0.352-0.119c2.156-0.701,4.344-1.304,6.593-1.801l0.688-0.149
		c0.445-0.093,0.9-0.187,1.365-0.277h0.006l0.459-0.087h0.006c1.665-0.294,3.347-0.536,5.054-0.713
		c0.681-0.078,1.372-0.139,2.059-0.188l0.249-0.019c0.39-0.032,0.771-0.055,1.155-0.074c1.265-0.068,2.543-0.107,3.828-0.107
		c0.542,0,1.081,0.007,1.62,0.02h0.006c0.552,0.013,1.094,0.032,1.64,0.055l0.619,0.032l0.752,0.048
		c2.14,0.145,4.244,0.381,6.323,0.72c0.293,0.045,0.584,0.093,0.878,0.145c0.451,0.074,0.902,0.161,1.357,0.249l0.029,0.006
		c1.728,0.332,3.434,0.729,5.109,1.204l0.626,0.171c0.455,0.126,0.9,0.255,1.349,0.4l0.117,0.036
		c2.097,0.645,4.153,1.397,6.151,2.233c0.639,0.268,1.277,0.549,1.903,0.833l0.113,0.048c0.384,0.181,0.768,0.362,1.148,0.542
		c1.379,0.658,2.725,1.359,4.045,2.111c0.348,0.19,0.696,0.39,1.039,0.587c0.315,0.187,0.633,0.375,0.942,0.572l0.322,0.193
		c2.017,1.246,3.979,2.595,5.845,4.034l0.342,0.262c0.385,0.297,0.759,0.594,1.137,0.897l0.273,0.232
		c1.872,1.533,3.66,3.163,5.374,4.883l0.311,0.323l0.702,0.726c0.379,0.404,0.757,0.807,1.124,1.217
		c1.14,1.259,2.239,2.562,3.282,3.912l0.143,0.184c0.261,0.335,0.522,0.671,0.776,1.013c0.242,0.329,0.485,0.658,0.721,0.984
		c1.358,1.901,2.63,3.87,3.792,5.903c0.241,0.423,0.478,0.846,0.714,1.268c0.18,0.326,0.357,0.656,0.525,0.991
		c0.727,1.372,1.397,2.776,2.023,4.196c0.2,0.448,0.391,0.9,0.584,1.349c0.162,0.384,0.317,0.768,0.465,1.158
		c0.361,0.894,0.697,1.808,1.013,2.718c0.41,1.194,0.794,2.404,1.141,3.621c0.132,0.452,0.255,0.91,0.381,1.372l0.012,0.055
		c0.217,0.819,0.414,1.645,0.602,2.475c0.348,1.539,0.632,3.105,0.867,4.679l0.032,0.194c0.068,0.452,0.136,0.917,0.2,1.385
		c0.042,0.332,0.078,0.674,0.117,1.01c0.125,1.123,0.222,2.253,0.296,3.395c0.033,0.517,0.064,1.03,0.075,1.546
		c0.031,0.713,0.051,1.433,0.058,2.153L159.023,90C159.023,90.665,159.01,91.326,158.991,91.991"/>
</g>
</svg>
