<svg width="58" height="101" viewBox="0 0 58 101" fill="none" xmlns="http://www.w3.org/2000/svg">
<path d="M41.652 48.542L39.48 50.434L41.441 52.254L42.794 53.506L54.765 64.612V71.376L35.488 53.506L34.142 52.254L32.05 50.318L34.093 48.542L35.533 47.291L54.765 30.551V37.128L43.091 47.291L41.652 48.542Z" fill="#86663C"/>
<path d="M6.964 27.478C6.964 36.473 12.983 44.08 21.206 46.494L54.763 17.276V23.86L27.848 47.288L26.402 48.55L24.795 49.944L27.283 52.254L28.637 53.507L54.764 77.737V84.508L21.965 54.097C13.357 56.25 6.964 64.054 6.964 73.32C6.964 84.241 15.852 93.13 26.773 93.13H54.763V98.097H26.773C13.115 98.096 2 86.978 2 73.32C2 62.985 8.355 54.11 17.366 50.4C17.708 50.535 18.056 50.674 18.402 50.797L17.795 50.232L17.366 50.4C8.355 46.687 2 37.812 2 27.478C2 13.817 13.115 2.702 26.773 2.702H54.763V7.669H26.773C15.852 7.669 6.964 16.554 6.964 27.478Z" fill="#86663C"/>
</svg>
